<svg xmlns="http://www.w3.org/2000/svg" viewBox="0 0 32.73 28.11"><defs><style>.cls-1{fill:none;stroke:#fff;stroke-miterlimit:10;}.cls-2{fill:#fff;}</style></defs><title>資產 4</title><g id="圖層_2" data-name="圖層 2"><g id="圖層_1-2" data-name="圖層 1"><path class="cls-1" d="M12.88,5S18.7-4.8,25.51,4.5c5.87,1.17,10.56,9.2,2.16,13.52-3.89,1.08-6.12-.67-6.12-.67l-2.6.36-2.28-.39s-4.39,1.84-4.88,1C8,19.63.74,7.45,12.88,5Z"/><polyline class="cls-1" points="11.47 18.29 12.72 21.8 25.22 21.8 26.47 18.53"/><path class="cls-1" d="M12.72,21.8s.38,5.75,1.63,5.63,10.13,0,10.13,0l.75-5.63"/><line class="cls-1" y1="27.61" x2="28.67" y2="27.61"/><path class="cls-2" d="M17,25.7a.66.66,0,0,0,.28.5.78.78,0,0,0,.24.12,1,1,0,0,0,.27,0,.84.84,0,0,0,.24,0,.65.65,0,0,0,.2-.1.48.48,0,0,0,.14-.15.41.41,0,0,0,.05-.21.38.38,0,0,0-.06-.21.65.65,0,0,0-.15-.16L18,25.35l-.26-.13-.24-.11L17.24,25,17,24.84a1,1,0,0,1-.17-.17.76.76,0,0,1-.11-.21.79.79,0,0,1,0-.26.74.74,0,0,1,.05-.29.81.81,0,0,1,.15-.23,1,1,0,0,1,.22-.18,1.39,1.39,0,0,1,.26-.13l.29-.08.29,0a1.42,1.42,0,0,1,.34,0,1,1,0,0,1,.28.11.61.61,0,0,1,.19.18.43.43,0,0,1,.07.24.39.39,0,0,1,0,.11.33.33,0,0,1-.06.11.34.34,0,0,1-.11.09.39.39,0,0,1-.17,0l-.2,0v0a.73.73,0,0,0,0-.13.53.53,0,0,0,0-.11.3.3,0,0,0-.05-.17.42.42,0,0,0-.13-.12.54.54,0,0,0-.17-.06l-.18,0a.89.89,0,0,0-.28,0,.69.69,0,0,0-.21.11.5.5,0,0,0-.13.16.4.4,0,0,0,0,.19.39.39,0,0,0,.06.22.76.76,0,0,0,.17.18,1.62,1.62,0,0,0,.25.15l.29.14.34.17a1.63,1.63,0,0,1,.3.2.92.92,0,0,1,.21.25.66.66,0,0,1,.08.34.82.82,0,0,1-.1.41,1,1,0,0,1-.27.3,1.26,1.26,0,0,1-.39.19,1.66,1.66,0,0,1-.46.06l-.25,0-.25-.05-.23-.09a.9.9,0,0,1-.19-.12.54.54,0,0,1-.13-.15.38.38,0,0,1,0-.18.28.28,0,0,1,0-.15.31.31,0,0,1,.1-.1l.14-.06.15,0Z"/><path class="cls-2" d="M20.83,24a1.45,1.45,0,0,1,.89-.2.51.51,0,0,1,.34.67.48.48,0,0,1-.6.2A1.38,1.38,0,0,1,20.83,24Z"/><path class="cls-2" d="M20.84,24a1.45,1.45,0,0,1,.16.9.51.51,0,0,1-.69.31.48.48,0,0,1-.17-.61A1.38,1.38,0,0,1,20.84,24Z"/><path class="cls-2" d="M20.83,24a1.45,1.45,0,0,1-.88.25.51.51,0,0,1-.37-.66.48.48,0,0,1,.59-.23A1.38,1.38,0,0,1,20.83,24Z"/><path class="cls-2" d="M20.82,24.07a1.45,1.45,0,0,1-.15-.9.51.51,0,0,1,.69-.3.48.48,0,0,1,.17.61A1.38,1.38,0,0,1,20.82,24.07Z"/><path class="cls-2" d="M21,24.43l-.07-.19,0,0,.54,1.43-.11,0-.23-.77Z"/><path class="cls-2" d="M19.74,4.61h0a1.06,1.06,0,0,1-1.26.89h0c-.65-.05-1-1.09-1.1-1.09h0s.63-1.09,1.28-1h0A1.17,1.17,0,0,1,19.74,4.61Z"/><path class="cls-2" d="M15.56,7.44h0a1.06,1.06,0,0,1-1-1.15h0c0-.65,1-1.14,1-1.22h0s1.16.49,1.18,1.14h0A1.17,1.17,0,0,1,15.56,7.44Z"/><path class="cls-2" d="M13.12,9.4h0a1.06,1.06,0,0,1-1.42-.62h0c-.29-.58.4-1.43.37-1.5h0s1.26,0,1.55.55h0A1.17,1.17,0,0,1,13.12,9.4Z"/><path class="cls-2" d="M10.65,11.27h0a1.06,1.06,0,0,1-1.26.89h0c-.65-.05-1-1.09-1.1-1.09h0S8.92,10,9.57,10h0A1.17,1.17,0,0,1,10.65,11.27Z"/><path class="cls-2" d="M14.92,12.34h0a1.06,1.06,0,0,1-1.26.89h0c-.65-.05-1-1.09-1.1-1.09h0s.63-1.09,1.28-1h0A1.17,1.17,0,0,1,14.92,12.34Z"/><path class="cls-2" d="M18.19,10.2h0a1.06,1.06,0,0,1-1.26.89h0c-.65-.05-1-1.09-1.1-1.09h0s.63-1.09,1.28-1h0A1.17,1.17,0,0,1,18.19,10.2Z"/><path class="cls-2" d="M19.74,14.68h0a1.06,1.06,0,0,1-1.26.89h0c-.65-.05-1-1.09-1.1-1.09h0s.63-1.09,1.28-1h0A1.17,1.17,0,0,1,19.74,14.68Z"/><path class="cls-2" d="M12.1,15h0a1.06,1.06,0,0,1-1.26.89h0c-.65-.05-1-1.09-1.1-1.09h0s.63-1.09,1.28-1h0A1.17,1.17,0,0,1,12.1,15Z"/><path class="cls-2" d="M15,16.95h0c-.63.05-1-.45-1.09-1.1h0c-.05-.65.9-1.18.89-1.26h0S15.94,15,16,15.67h0A1.17,1.17,0,0,1,15,16.95Z"/></g></g></svg>