<svg xmlns="http://www.w3.org/2000/svg" viewBox="0 0 129.09 129.09"><defs><style>.cls-1{fill:#c0b1a8;}.cls-2{fill:#fff;}</style></defs><title>資產 8</title><g id="圖層_2" data-name="圖層 2"><g id="圖層_1-2" data-name="圖層 1"><circle class="cls-1" cx="64.54" cy="64.54" r="64.54"/><path class="cls-2" d="M86.65,50.79c-6.1-9.76-13.83-15-22.38-12.71-7,1.9-10.15,8.44-8.2,15.66,2.2,8.17,10.69,10.16,19.15,11.34,14.49,1.59,25.53,5.54,28.76,17.51,4.3,16-8.5,28.17-22.55,32-8.93,2.41-18.2,1.24-21.77-.65-2-2.11-6.93-13.61-8.57-19.69l5.25-2.43c6,11,16,18.69,26.68,15.83a13.42,13.42,0,0,0,9.62-16.45c-2.1-7.79-8.92-10.43-18.11-12-13-2.19-25.47-4.54-29.11-18C42.14,48.94,50,35.81,66,31.51a39.34,39.34,0,0,1,16.39-1.16c2.6,3.58,7.21,13.13,9.06,17.73Z"/><path class="cls-2" d="M37,74.52s3.82-2.28,6.7-1.54A3.81,3.81,0,0,1,46.33,78c-.5,1.5-2.94,2.19-4.52,1.52C40,78.95,37.72,76.25,37,74.52Z"/><path class="cls-2" d="M37.11,74.11S39.19,78,38.3,80.88a3.81,3.81,0,0,1-5.18,2.32c-1.47-.57-2-3.05-1.29-4.59C32.53,76.83,35.35,74.69,37.11,74.11Z"/><path class="cls-2" d="M37.07,74.06s-3.71,2.45-6.62,1.84A3.81,3.81,0,0,1,27.64,71c.43-1.52,2.84-2.33,4.44-1.73C33.91,69.77,36.31,72.36,37.07,74.06Z"/><path class="cls-2" d="M37,74.77s-2-3.95-1.13-6.78a3.81,3.81,0,0,1,5.2-2.27c1.47.59,2,3.07,1.25,4.6C41.58,72.08,38.75,74.2,37,74.77Z"/><path class="cls-2" d="M38.48,78s-.55-1.36-.56-1.4l.25-.12,4.06,10.76-.79.29-1.75-5.78Z"/><path class="cls-2" d="M21.75,85.24a19.76,19.76,0,0,1-3-1,10.23,10.23,0,0,1-2-1.12A4.34,4.34,0,0,1,15.64,82a2.41,2.41,0,0,1-.38-1.15,1.91,1.91,0,0,1,.12-.74,1.74,1.74,0,0,1,.43-.65,2.24,2.24,0,0,1,.77-.47,3.64,3.64,0,0,1,1.15-.21h.56l.79,0,.91,0,.95,0,.88,0h.72a6.85,6.85,0,0,0,.87-.08,1.61,1.61,0,0,0,.52-.17.55.55,0,0,0,.25-.28,1.08,1.08,0,0,0,.05-.42,2.94,2.94,0,0,0-.13-.73,4.7,4.7,0,0,0-.31-.76l.35-.14a4.22,4.22,0,0,1,.43.6,8.13,8.13,0,0,1,.41.77,6.25,6.25,0,0,1,.31.81,2.94,2.94,0,0,1,.14.72.82.82,0,0,1-.17.59,1.21,1.21,0,0,1-.53.34,3.51,3.51,0,0,1-.79.17q-.46.05-1,.07t-1.31,0l-1.3,0-1.14,0q-.52,0-.83,0a1.84,1.84,0,0,0-1.12.34,1,1,0,0,0-.35.81,1.4,1.4,0,0,0,.37.82,4.55,4.55,0,0,0,1,.83,9.56,9.56,0,0,0,1.41.78,13.87,13.87,0,0,0,1.75.65,15.77,15.77,0,0,0,2,.45,13.38,13.38,0,0,0,2,.18l.24,1.45v.11l-1.78,0-2.07,0-2.28,0-2.42,0-2.48,0-2.47,0-2.39,0-2.24,0a.5.5,0,0,1-.29-.08.65.65,0,0,1-.2-.22,1.18,1.18,0,0,1-.12-.31,2,2,0,0,1,0-.37A2,2,0,0,1,7,84.62l2.57.17,2.17.13,1.86.1,1.65.07,1.54.05,1.53,0,1.62,0,1.8,0Z"/><path class="cls-2" d="M9.05,68.61a2.8,2.8,0,0,0-1.17.11,2.3,2.3,0,0,0-.85.49A2.33,2.33,0,0,0,6.5,70a2.76,2.76,0,0,0-.24.87,3.49,3.49,0,0,0,0,1,1.86,1.86,0,0,0,.28.7A1.26,1.26,0,0,0,7,73a1.8,1.8,0,0,0,.63.17,2.38,2.38,0,0,0,.82-.07,3.12,3.12,0,0,0,.83-.36l.09,0a2.18,2.18,0,0,1,.14,1,1.58,1.58,0,0,1-.14.52,1.22,1.22,0,0,1-.3.4,1.21,1.21,0,0,1-.44.25,1.37,1.37,0,0,1-.55.05,1.91,1.91,0,0,1-.91-.33,3.11,3.11,0,0,1-.74-.71,4.7,4.7,0,0,1-.56-1,7.45,7.45,0,0,1-.57-2.26,5.65,5.65,0,0,1,0-1,4.3,4.3,0,0,1,.38-1.48,2.47,2.47,0,0,1,.78-.95,2.79,2.79,0,0,1,1.14-.47,5.32,5.32,0,0,1,1.46,0q.55.05,1.21.16l1.38.24,1.49.25q.77.12,1.53.19a3.06,3.06,0,0,0,1.86-.27,1.4,1.4,0,0,0,.72-1.12A2.88,2.88,0,0,0,17,64.68l.38-.21a4.06,4.06,0,0,1,.74,1.3,3.41,3.41,0,0,1,.16,1.42,2.69,2.69,0,0,1-.28,1,2.16,2.16,0,0,1-.62.74,2.51,2.51,0,0,1-1,.43,4.07,4.07,0,0,1-1.3.06l-.43-.05-.46-.1v.05a12.6,12.6,0,0,1,1.34,1,7.94,7.94,0,0,1,1.15,1.16,5.31,5.31,0,0,1,.77,1.29,2.85,2.85,0,0,1,.21,1.38,2.71,2.71,0,0,1-.3,1,2.44,2.44,0,0,1-.63.76,2.51,2.51,0,0,1-.88.45,2.87,2.87,0,0,1-1.07.09,3.24,3.24,0,0,1-1.31-.4,3.61,3.61,0,0,1-1-.86A4.71,4.71,0,0,1,11.71,74a8.13,8.13,0,0,1-.44-1.51,10.92,10.92,0,0,1-.18-1.7,14.11,14.11,0,0,1,.06-1.8l-1-.19Q9.65,68.67,9.05,68.61Zm5.26,5.69a2.68,2.68,0,0,0,.63,0,1.57,1.57,0,0,0,.55-.18,1.12,1.12,0,0,0,.39-.36,1.19,1.19,0,0,0,.18-.56,2,2,0,0,0-.1-.8,3.6,3.6,0,0,0-.41-.84,5.07,5.07,0,0,0-.67-.82A6.37,6.37,0,0,0,13,69.44a5.33,5.33,0,0,0-1.14-.36q0,.62,0,1.24a8.62,8.62,0,0,0,.09,1.18,5.55,5.55,0,0,0,.25,1.05,3,3,0,0,0,.46.86,2.34,2.34,0,0,0,.71.6A2.53,2.53,0,0,0,14.31,74.31Z"/><path class="cls-2" d="M5.78,63.66q-.1-.77-.16-1.3t-.07-.9q0-.36,0-.56a2.27,2.27,0,0,1,0-.3,1,1,0,0,1,.1-.3.61.61,0,0,1,.21-.22A.8.8,0,0,1,6.2,60a1.79,1.79,0,0,1,.5,0l.38.07.79.16,1.23.27,1.71.39,0-.08a15.67,15.67,0,0,1-2.06-1.46,10.51,10.51,0,0,1-1.44-1.47,5.13,5.13,0,0,1-.81-1.38,2.39,2.39,0,0,1-.15-1.21,1.78,1.78,0,0,1,.29-.75A2,2,0,0,1,7.19,54a2.6,2.6,0,0,1,.71-.32,4.53,4.53,0,0,1,.8-.15,5.63,5.63,0,0,1,.82,0,6.85,6.85,0,0,1,.76.08,7.94,7.94,0,0,1,1.76.49,7.33,7.33,0,0,1,1.44.78,6,6,0,0,1,1.11,1A5.29,5.29,0,0,1,15.35,57a4.51,4.51,0,0,1,.39,1.22,3.73,3.73,0,0,1,0,1.22,3.48,3.48,0,0,1-.43,1.19,3.26,3.26,0,0,1-.94,1l3.36.69q1.73.36,3.63.67l-.07,1.39,0,.14-2.53-.6-2.66-.59-2.63-.56L11,62.29l-2.07-.4-1.54-.27a3.2,3.2,0,0,0-.44,0,.82.82,0,0,0-.33.05.47.47,0,0,0-.22.19,1,1,0,0,0-.12.37,4.08,4.08,0,0,0,0,.59q0,.35,0,.86Zm7.9-2.18a4.14,4.14,0,0,0,.87-1,2.95,2.95,0,0,0-.44-3.68,4.74,4.74,0,0,0-1.4-.94,8,8,0,0,0-2.05-.59,6.4,6.4,0,0,0-.92-.08,4,4,0,0,0-.89.08,1.84,1.84,0,0,0-.69.28.79.79,0,0,0-.34.54,1.7,1.7,0,0,0,.08.82,3.47,3.47,0,0,0,.43.85,5.87,5.87,0,0,0,.7.84,11.26,11.26,0,0,0,.89.8,12.17,12.17,0,0,0,1,.72q.52.34,1,.61t.95.46A5.85,5.85,0,0,0,13.68,61.48Z"/><path class="cls-2" d="M8.55,51.82q-.07-.84-.1-1.43t0-1q0-.4,0-.62a2.48,2.48,0,0,1,0-.33,1,1,0,0,1,.12-.32.66.66,0,0,1,.24-.23.88.88,0,0,1,.38-.11,2,2,0,0,1,.55,0l.41.1.85.22,1.33.36,1.84.51,0-.08A17.15,17.15,0,0,1,12,47.25a11.5,11.5,0,0,1-1.5-1.68A5.61,5.61,0,0,1,9.72,44a2.61,2.61,0,0,1-.11-1.33,1.94,1.94,0,0,1,.36-.81,2.15,2.15,0,0,1,.62-.54,2.84,2.84,0,0,1,.79-.31,5,5,0,0,1,.88-.12,6.16,6.16,0,0,1,.9,0,7.49,7.49,0,0,1,.83.12,8.69,8.69,0,0,1,1.9.62,8,8,0,0,1,1.53.93,6.62,6.62,0,0,1,1.16,1.15,5.79,5.79,0,0,1,.77,1.3,4.94,4.94,0,0,1,.36,1.35,4.08,4.08,0,0,1-.06,1.33A3.81,3.81,0,0,1,19.14,49a3.57,3.57,0,0,1-1.08,1l3.63.93q1.87.48,3.93.92l-.14,1.52,0,.15-2.73-.79L19.82,52,17,51.28l-2.64-.67-2.24-.55-1.67-.38a3.5,3.5,0,0,0-.48-.07.9.9,0,0,0-.36,0,.51.51,0,0,0-.25.19,1.07,1.07,0,0,0-.15.4,4.47,4.47,0,0,0-.08.65q0,.39,0,.94Zm8.75-2a4.53,4.53,0,0,0,1-1,3.22,3.22,0,0,0-.29-4,5.19,5.19,0,0,0-1.48-1.1,8.71,8.71,0,0,0-2.21-.75,7,7,0,0,0-1-.14,4.39,4.39,0,0,0-1,0,2,2,0,0,0-.77.27.86.86,0,0,0-.4.57,1.86,1.86,0,0,0,0,.9,3.8,3.8,0,0,0,.43,1,6.42,6.42,0,0,0,.72,1,12.31,12.31,0,0,0,.93.92,13.31,13.31,0,0,0,1,.84q.55.4,1.08.72t1,.55A6.4,6.4,0,0,0,17.3,49.85Z"/><path class="cls-2" d="M24,38.37l-1.37-.21L21.15,38l-1.43-.19-1.35-.17-1.19-.14-1-.09a5.25,5.25,0,0,0-.7,0,1.59,1.59,0,0,0-.47.09.79.79,0,0,0-.3.19,1,1,0,0,0-.19.29,2.44,2.44,0,0,0-.14.44q-.06.24-.12.59l-.48-.11q0-.43.08-.83t.1-.74q.05-.34.12-.59a2.36,2.36,0,0,1,.12-.39.92.92,0,0,1,.19-.28.9.9,0,0,1,.32-.2,1.74,1.74,0,0,1,.5-.1,4.87,4.87,0,0,1,.72,0l.69.06.94.11,1.14.15,1.28.19,1.35.22,1.36.24-1.39-1.39-1.45-1.46L18.45,32.4,17.09,31a.65.65,0,0,1-.15-.25.88.88,0,0,1,0-.27,1.1,1.1,0,0,1,0-.27,1.61,1.61,0,0,1,.09-.26,1.46,1.46,0,0,1,.23-.37,2.56,2.56,0,0,1,.31-.3q.32.48.74,1t.9,1.13q.48.59,1,1.21l1.09,1.24,1.13,1.24,1.13,1.21q.56.6,1.12,1.16l1.08,1.09,1,1q.48.5.88,1a9.57,9.57,0,0,1,.66.89,4.06,4.06,0,0,1,.44.9,2.8,2.8,0,0,1,.15.91,2.24,2.24,0,0,1-.21.92,1.82,1.82,0,0,1-.31.49A1.43,1.43,0,0,1,28,45a1,1,0,0,1-.4.12.82.82,0,0,1-.39-.07,1,1,0,0,1-.37-.31.89.89,0,0,1-.19-.46,2,2,0,0,0,.46-.42,2.11,2.11,0,0,0,.28-.44,1.66,1.66,0,0,0,.13-1,3.06,3.06,0,0,0-.49-1.1A10.49,10.49,0,0,0,26,40q-.67-.71-1.58-1.63l-.27-.27Z"/><path class="cls-2" d="M30.11,35l.26.21.26.19a4,4,0,0,0,1.29.61,2.37,2.37,0,0,0,1.14,0,2.5,2.5,0,0,0,1-.52,4.79,4.79,0,0,0,.87-1,4.63,4.63,0,0,0,.61-1.25,3.36,3.36,0,0,0,.14-1.28,2.94,2.94,0,0,0-.38-1.21,3.09,3.09,0,0,0-1-1,2.91,2.91,0,0,0-.83-.4,3,3,0,0,0-.84-.12,3.57,3.57,0,0,0-.85.11,6.53,6.53,0,0,0-.86.28q-.43.17-.87.39l-.88.44-.94.47a10.29,10.29,0,0,1-1,.41,6.9,6.9,0,0,1-1,.28,3.92,3.92,0,0,1-1,.08,3.86,3.86,0,0,1-1-.19,4,4,0,0,1-1-.51,5.08,5.08,0,0,1-1.08-1,4.84,4.84,0,0,1-.7-1.15,4.68,4.68,0,0,1-.35-1.26,5.23,5.23,0,0,1,0-1.31,5.45,5.45,0,0,1,.33-1.3,6,6,0,0,1,.64-1.22,6.3,6.3,0,0,1,.42-.55,6.92,6.92,0,0,1,.51-.54,6.48,6.48,0,0,1,.55-.47,3.39,3.39,0,0,1,.55-.34,1.58,1.58,0,0,1,.5-.16.56.56,0,0,1,.39.08l.43.3.59.42.71.52.81.61-.45.59-.4-.3a3.49,3.49,0,0,0-1.18-.54,2.49,2.49,0,0,0-1.1,0,2.53,2.53,0,0,0-1,.47,3.81,3.81,0,0,0-.84.91,3.47,3.47,0,0,0-.52,1.16,3,3,0,0,0-.05,1.18,2.87,2.87,0,0,0,.41,1.08,3,3,0,0,0,.86.88,3.07,3.07,0,0,0,1.76.56,3.49,3.49,0,0,0,.88-.11,6.92,6.92,0,0,0,.88-.29q.44-.18.89-.4l.9-.46.93-.48q.47-.23.94-.42a6.28,6.28,0,0,1,1-.28,4,4,0,0,1,1-.08,3.72,3.72,0,0,1,1,.17,3.81,3.81,0,0,1,1,.5A5.31,5.31,0,0,1,35.74,29a4.57,4.57,0,0,1,.7,1.37,4.62,4.62,0,0,1,.21,1.42,6.15,6.15,0,0,1-.17,1.38A6.82,6.82,0,0,1,36,34.38a7.36,7.36,0,0,1-.58,1,8.87,8.87,0,0,1-.85,1.07,6.8,6.8,0,0,1-.84.78,2.64,2.64,0,0,1-.73.41.57.57,0,0,1-.51,0l-1.14-.82-1.74-1.31Z"/><path class="cls-2" d="M41.34,23.12q-1-1.07-2.11-2.18t-2.3-2.19q.09.5.17,1.08T37.25,21q.07.63.11,1.28t.08,1.27q0,.62,0,1.2t0,1.06l-.73.39q-.49-.55-1.05-1.13l-1.14-1.17L33.4,22.8l-1.11-1.05-1-.9q-.46-.41-.8-.68a7.92,7.92,0,0,0-.68-.49,2,2,0,0,0-.49-.23.75.75,0,0,0-.38,0,1,1,0,0,0-.34.15,2.77,2.77,0,0,0-.4.34l-.47.49-.4-.39q.63-.87,1.14-1.45a4.89,4.89,0,0,1,.77-.76,1,1,0,0,1,.34-.15.89.89,0,0,1,.4,0,2,2,0,0,1,.5.21,4.91,4.91,0,0,1,.64.44l.64.53.83.74,1,.9,1.05,1,1.08,1.09q.54.56,1.06,1.13,0-.31,0-.74t-.08-.94q-.05-.5-.12-1t-.14-1q-.08-.48-.17-.88A5.45,5.45,0,0,0,36,18.5a2.63,2.63,0,0,0-.15-.33,3.33,3.33,0,0,0-.18-.3,4.52,4.52,0,0,0-.31-.4l-.37-.4-.4-.39-.39-.36a1.38,1.38,0,0,1-.23-.24.47.47,0,0,1-.08-.4.8.8,0,0,1,.35-.4,2,2,0,0,1,.45-.23,2.21,2.21,0,0,1,.49-.12l1.52,1.35,1.59,1.45q.8.74,1.57,1.47t1.46,1.44q0-1-.11-2a19.71,19.71,0,0,0-.24-2,12.13,12.13,0,0,0-.45-1.8,6.22,6.22,0,0,0-.75-1.53,4.74,4.74,0,0,0-.41-.52,3,3,0,0,0-.48-.42,2.4,2.4,0,0,0-.56-.3,2.43,2.43,0,0,0-.67-.14l0-.2.21-.17.2-.15a2,2,0,0,1,1.5-.44,1.79,1.79,0,0,1,1.15.83,5,5,0,0,1,.61,1.35A13.42,13.42,0,0,1,41.72,15q.16,1,.24,2t.11,2.1q0,1,0,2t0,1.65Z"/><path class="cls-2" d="M52.22,15.87l.15,0,.17,0,.15.07a.2.2,0,0,1,.09.1.11.11,0,0,1,0,.07,6.91,6.91,0,0,1-.56,1.41,6.21,6.21,0,0,1-.78,1.14,5,5,0,0,1-1,.85,4.76,4.76,0,0,1-1.07.55,4.13,4.13,0,0,1-1.87.24,4.41,4.41,0,0,1-1.73-.57,5.28,5.28,0,0,1-1.45-1.25,6.12,6.12,0,0,1-1-1.82,8.5,8.5,0,0,1-.46-3.55,7.87,7.87,0,0,1,.34-1.73,6.35,6.35,0,0,1,.73-1.55,5.63,5.63,0,0,1,1.14-1.27,5.15,5.15,0,0,1,1.55-.87A4.11,4.11,0,0,1,47.8,7.5a3.14,3.14,0,0,1,1.09.12,2.36,2.36,0,0,1,.9.5,2.15,2.15,0,0,1,.59.9,2.19,2.19,0,0,1,0,1.59,4.43,4.43,0,0,1-1.08,1.54,10.92,10.92,0,0,1-1.93,1.45A25.15,25.15,0,0,1,44.79,15l0,.13a6.66,6.66,0,0,0,.92,1.75A4.86,4.86,0,0,0,47,18a3.5,3.5,0,0,0,1.39.55,2.86,2.86,0,0,0,1.43-.14,3.61,3.61,0,0,0,1.33-.87A5.64,5.64,0,0,0,52.22,15.87Zm-3.76-5.79a2,2,0,0,0-.37-.63A1.79,1.79,0,0,0,47.56,9a1.68,1.68,0,0,0-1.34-.08,2.46,2.46,0,0,0-.86.52,2.75,2.75,0,0,0-.57.76,3.68,3.68,0,0,0-.32.93,5.67,5.67,0,0,0-.11,1,7.44,7.44,0,0,0,.06,1.06,8.51,8.51,0,0,0,.19,1,15,15,0,0,0,1.91-1,6.89,6.89,0,0,0,1.32-1,2.78,2.78,0,0,0,.67-1.06A1.64,1.64,0,0,0,48.46,10.07Z"/><path class="cls-2" d="M62.35,12.74l.14,0,.17,0,.15.06a.19.19,0,0,1,.09.09.11.11,0,0,1,0,.07,6.64,6.64,0,0,1-.51,1.37,6,6,0,0,1-.73,1.11,4.82,4.82,0,0,1-.9.84,4.58,4.58,0,0,1-1,.55,4,4,0,0,1-1.79.27,4.24,4.24,0,0,1-1.68-.51,5.07,5.07,0,0,1-1.42-1.17,5.88,5.88,0,0,1-1-1.73,8.17,8.17,0,0,1-.52-3.4,7.56,7.56,0,0,1,.29-1.67,6.11,6.11,0,0,1,.67-1.51,5.41,5.41,0,0,1,1.07-1.24,5,5,0,0,1,1.47-.87,4,4,0,0,1,1.12-.26,3,3,0,0,1,1,.09,2.27,2.27,0,0,1,.87.46,2.07,2.07,0,0,1,.59.85,2.11,2.11,0,0,1,0,1.53,4.26,4.26,0,0,1-1,1.5,10.5,10.5,0,0,1-1.82,1.44A24.18,24.18,0,0,1,55.19,12l0,.13a6.4,6.4,0,0,0,.92,1.66,4.68,4.68,0,0,0,1.2,1.1,3.37,3.37,0,0,0,1.35.49,2.75,2.75,0,0,0,1.37-.17,3.47,3.47,0,0,0,1.26-.87A5.43,5.43,0,0,0,62.35,12.74ZM58.61,7.25a1.9,1.9,0,0,0-.37-.6,1.72,1.72,0,0,0-.52-.4,1.61,1.61,0,0,0-1.29,0,2.36,2.36,0,0,0-.82.51,2.64,2.64,0,0,0-.53.74,3.53,3.53,0,0,0-.29.91,5.45,5.45,0,0,0-.09,1,7.15,7.15,0,0,0,.08,1,8.18,8.18,0,0,0,.2,1,14.46,14.46,0,0,0,1.81-1,6.62,6.62,0,0,0,1.24-1,2.67,2.67,0,0,0,.62-1A1.58,1.58,0,0,0,58.61,7.25Z"/><path class="cls-2" d="M63.69,4.49q.49,1.48,1.13,3t1.31,2.94l.64-.36.58-.33.48-.28.36-.22a6.59,6.59,0,0,0,1-.69l.18.18a1,1,0,0,1,.13.17.43.43,0,0,1,0,.54,2.64,2.64,0,0,1-.67.52q-.45.27-1,.55l-1.29.63q.36.78.73,1.51T67.9,14q.34.64.64,1.17l.54.93a11.86,11.86,0,0,0,.86,1.26,3.78,3.78,0,0,0,.85.82,1.68,1.68,0,0,0,.9.3,1.82,1.82,0,0,0,1-.3,3.54,3.54,0,0,0,.75-.63,7.36,7.36,0,0,0,.79-1,.85.85,0,0,1,.48.33q-.26.54-.55,1a9.6,9.6,0,0,1-.61.9,6.58,6.58,0,0,1-.66.74,3.89,3.89,0,0,1-.69.53,2.4,2.4,0,0,1-.94.34,1.79,1.79,0,0,1-1-.2,4,4,0,0,1-1.12-.9,10.58,10.58,0,0,1-1.26-1.74q-.37-.62-.75-1.3t-.75-1.37q-.37-.7-.72-1.41T64.94,12q-.54.33-1,.65a5.81,5.81,0,0,0-.72.59.25.25,0,0,1-.08-.08.43.43,0,0,1,0-.36,1.57,1.57,0,0,1,.25-.46,3.76,3.76,0,0,1,.5-.53,7.07,7.07,0,0,1,.71-.56q-.7-1.53-1.29-2.91t-1-2.49a.78.78,0,0,1,0-.37.84.84,0,0,1,.11-.31,1,1,0,0,1,.21-.26,1.75,1.75,0,0,1,.26-.2,1.86,1.86,0,0,1,.44-.2A1.66,1.66,0,0,1,63.69,4.49Z"/><path class="cls-2" d="M75.61,14.41a2.37,2.37,0,0,0,1.51,1.34,2.81,2.81,0,0,0,1,.11,3.44,3.44,0,0,0,.94-.19,3,3,0,0,0,.76-.39,2.37,2.37,0,0,0,.57-.56,1.74,1.74,0,0,0,.29-.69,1.45,1.45,0,0,0-.07-.76,1.37,1.37,0,0,0-.44-.64,2.29,2.29,0,0,0-.7-.37,4.65,4.65,0,0,0-.9-.2l-1-.12-.94-.1q-.47-.05-.93-.15a6.65,6.65,0,0,1-.88-.24,3.61,3.61,0,0,1-.78-.38,2.74,2.74,0,0,1-.64-.58,2.79,2.79,0,0,1-.45-.83,2.63,2.63,0,0,1-.16-1,2.93,2.93,0,0,1,.22-1,3.71,3.71,0,0,1,.51-.87A5,5,0,0,1,74.2,6a5.61,5.61,0,0,1,.87-.6A5.9,5.9,0,0,1,76,5a5.09,5.09,0,0,1,1.19-.27,3.39,3.39,0,0,1,1.08.05,2.18,2.18,0,0,1,.86.39,1.54,1.54,0,0,1,.52.73,1.42,1.42,0,0,1,.07.4,1.17,1.17,0,0,1-.07.45,1.23,1.23,0,0,1-.27.43,1.38,1.38,0,0,1-.53.33,2.59,2.59,0,0,1-.7.13l0-.07a2.6,2.6,0,0,0,0-.5A1.85,1.85,0,0,0,78,6.72a1.08,1.08,0,0,0-.38-.52A1.46,1.46,0,0,0,77.07,6a2,2,0,0,0-.65,0,3.07,3.07,0,0,0-.64.15,3.16,3.16,0,0,0-.91.48,2.4,2.4,0,0,0-.58.63,1.8,1.8,0,0,0-.26.7,1.44,1.44,0,0,0,.06.68,1.39,1.39,0,0,0,.48.67,2.68,2.68,0,0,0,.79.4,5.9,5.9,0,0,0,1,.22l1.16.14,1.34.16a5.86,5.86,0,0,1,1.24.31,3.31,3.31,0,0,1,1,.6,2.36,2.36,0,0,1,.67,1A2.91,2.91,0,0,1,82,13.6a3.39,3.39,0,0,1-.56,1.34A4.49,4.49,0,0,1,80.3,16a5.86,5.86,0,0,1-1.47.76A6.25,6.25,0,0,1,78,17a5.88,5.88,0,0,1-.89.11,5.2,5.2,0,0,1-.86,0,3.17,3.17,0,0,1-.77-.19,2,2,0,0,1-.6-.37,1.35,1.35,0,0,1-.37-.57,1,1,0,0,1-.05-.54,1.07,1.07,0,0,1,.21-.45,1.68,1.68,0,0,1,.39-.35,2.51,2.51,0,0,1,.49-.25Z"/></g></g></svg>