<?xml version="1.0" encoding="utf-8"?>
<!-- Generator: Adobe Illustrator 23.0.1, SVG Export Plug-In . SVG Version: 6.00 Build 0)  -->
<svg version="1.1" id="圖層_1" xmlns="http://www.w3.org/2000/svg" xmlns:xlink="http://www.w3.org/1999/xlink" x="0px" y="0px"
	 viewBox="0 0 50.3 41.5" style="enable-background:new 0 0 50.3 41.5;" xml:space="preserve">
<style type="text/css">
	.st0{fill:none;stroke:#785F51;stroke-width:0.75;stroke-miterlimit:10;}
	.st1{fill:#785F51;}
	.st2{enable-background:new    ;}
</style>
<title>資產 8</title>
<g>
	<g id="圖層_1-2">
		<path class="st0" d="M17.1,18.8c0,0,5.8-9.8,12.6-0.5c5.9,1.2,10.6,9.2,2.2,13.5c-3.9,1.1-6.1-0.7-6.1-0.7l-2.6,0.4l-2.3-0.4
			c0,0-4.4,1.8-4.9,1C12.2,33.4,4.9,21.2,17.1,18.8z"/>
		<polyline class="st0" points="15.6,31.9 16.9,35.3 29.4,35.3 30.6,32.1 		"/>
		<path class="st0" d="M16.9,35.3c0,0,0.4,5.8,1.6,5.6s10.1,0,10.1,0l0.8-5.6"/>
		<line class="st0" x1="4.2" y1="41.2" x2="32.8" y2="41.2"/>
		<path class="st1" d="M21.1,39.3c0,0.2,0.1,0.4,0.3,0.5c0.1,0.1,0.2,0.1,0.2,0.1c0.1,0,0.2,0,0.3,0c0.1,0,0.2,0,0.2,0
			c0.1,0,0.1-0.1,0.2-0.1c0.1,0,0.1-0.1,0.1-0.2c0-0.1,0.1-0.1,0-0.2c0-0.1,0-0.1-0.1-0.2c0-0.1-0.1-0.1-0.1-0.2l-0.2-0.1l-0.3-0.1
			l-0.2-0.1l-0.2-0.1l-0.2-0.2c-0.1,0-0.1-0.1-0.2-0.2c0-0.1-0.1-0.1-0.1-0.2c0-0.1,0-0.2,0-0.3c0-0.1,0-0.2,0-0.3
			c0-0.1,0.1-0.2,0.1-0.2c0-0.1,0.1-0.2,0.2-0.2c0.1-0.1,0.2-0.1,0.3-0.1l0.3-0.1h0.3c0.1,0,0.2,0,0.3,0c0.1,0,0.2,0.1,0.3,0.1
			c0.1,0,0.1,0.1,0.2,0.2c0,0.1,0.1,0.2,0.1,0.2c0,0,0,0.1,0,0.1c0,0,0,0.1-0.1,0.1c0,0-0.1,0.1-0.1,0.1c-0.1,0-0.1,0-0.2,0h-0.2
			l0,0c0,0,0-0.1,0-0.1c0,0,0-0.1,0-0.1c0-0.1,0-0.1,0-0.2c0,0-0.1-0.1-0.1-0.1c-0.1,0-0.1,0-0.2-0.1H22c-0.1,0-0.2,0-0.3,0
			c-0.1,0-0.1,0.1-0.2,0.1c-0.1,0-0.1,0.1-0.1,0.2c0,0.1,0,0.1,0,0.2c0,0.1,0,0.2,0.1,0.2c0,0.1,0.1,0.1,0.2,0.2
			c0.1,0.1,0.2,0.1,0.3,0.2l0.3,0.1l0.3,0.2c0.1,0.1,0.2,0.1,0.3,0.2c0.1,0.1,0.2,0.2,0.2,0.3C23,38.9,23,39,23,39.2
			c0,0.1,0,0.3-0.1,0.4c-0.1,0.1-0.2,0.2-0.3,0.3c-0.1,0.1-0.2,0.1-0.4,0.2c-0.1,0-0.3,0.1-0.5,0.1h-0.3l-0.3,0L21.1,40
			c-0.1,0-0.1-0.1-0.2-0.1c-0.1,0-0.1-0.1-0.1-0.2c0-0.1,0-0.1,0-0.2c0,0,0-0.1,0-0.2c0,0,0.1-0.1,0.1-0.1l0.1-0.1L21.1,39.3
			L21.1,39.3z"/>
		<path class="st1" d="M24.6,37.2C24.8,37,25,37,25.2,37c0.2,0,0.3,0.2,0.2,0.4c0,0,0,0,0,0c-0.1,0.1-0.3,0.2-0.4,0.1
			C24.8,37.5,24.7,37.4,24.6,37.2z"/>
		<path class="st1" d="M24.6,37.1c0.1,0.2,0.1,0.4,0.1,0.6c-0.1,0.2-0.2,0.3-0.4,0.2c0,0,0,0,0,0c-0.1-0.1-0.2-0.3-0.1-0.4
			C24.2,37.4,24.4,37.2,24.6,37.1z"/>
		<path class="st1" d="M24.6,37.1c-0.2,0.1-0.4,0.2-0.6,0.2c-0.2,0-0.3-0.2-0.3-0.4c0,0,0,0,0,0c0.1-0.1,0.2-0.2,0.4-0.2
			C24.3,36.8,24.5,36.9,24.6,37.1z"/>
		<path class="st1" d="M24.6,37.2c-0.1-0.2-0.1-0.4-0.1-0.6c0.1-0.2,0.2-0.3,0.4-0.2c0,0,0,0,0,0c0.1,0.1,0.2,0.3,0.1,0.4
			C24.9,37,24.8,37.1,24.6,37.2z"/>
		<path class="st1" d="M24.6,37.4l-0.1-0.2l0,0l0.5,1.4H25l-0.2-0.8L24.6,37.4z"/>
		<path class="st1" d="M25.6,18.1L25.6,18.1c-0.1,0.6-0.6,1-1.2,0.9c0,0,0,0-0.1,0l0,0c-0.6,0-1-1.1-1.1-1.1l0,0c0,0,0.6-1.1,1.3-1
			l0,0C25.1,17,25.6,17.5,25.6,18.1z"/>
		<path class="st1" d="M21.4,20.9L21.4,20.9c-0.6,0-1-0.5-1-1.1c0,0,0,0,0,0l0,0c0-0.6,1-1.1,1-1.2l0,0c0,0,1.2,0.5,1.2,1.1l0,0
			C22.6,20.4,22.1,20.9,21.4,20.9C21.4,20.9,21.4,20.9,21.4,20.9z"/>
		<path class="st1" d="M19,22.9L19,22.9c-0.5,0.2-1.2,0-1.4-0.6c0,0,0,0,0-0.1l0,0c-0.3-0.6,0.4-1.4,0.4-1.5l0,0c0,0,1.3,0,1.5,0.5
			l0,0C19.7,21.9,19.5,22.6,19,22.9z"/>
		<path class="st1" d="M16.5,25.1L16.5,25.1c-0.1,0.6-0.6,1-1.2,0.9c0,0,0,0-0.1,0l0,0c-0.6,0-1-1.1-1.1-1.1l0,0c0,0,0.6-1.1,1.3-1
			l0,0C16,23.9,16.5,24.4,16.5,25.1z"/>
		<path class="st1" d="M20.8,25.8L20.8,25.8c-0.1,0.6-0.6,1-1.2,0.9c0,0,0,0-0.1,0l0,0c-0.6,0-1-1.1-1.1-1.1l0,0c0,0,0.6-1.1,1.3-1
			l0,0C20.3,24.7,20.8,25.2,20.8,25.8z"/>
		<path class="st1" d="M24,23.7L24,23.7c-0.1,0.6-0.6,1-1.2,0.9c0,0,0,0-0.1,0l0,0c-0.6,0-1-1.1-1.1-1.1l0,0c0,0,0.6-1.1,1.3-1l0,0
			C23.5,22.5,24,23.1,24,23.7z"/>
		<path class="st1" d="M25.6,28.2L25.6,28.2c-0.1,0.6-0.6,1-1.2,0.9c0,0,0,0-0.1,0l0,0c-0.6,0-1-1.1-1.1-1.1l0,0c0,0,0.6-1.1,1.3-1
			l0,0C25.1,27,25.6,27.5,25.6,28.2z"/>
		<path class="st1" d="M17.9,28.5L17.9,28.5c-0.1,0.6-0.6,1-1.2,0.9c0,0,0,0-0.1,0l0,0c-0.6,0-1-1.1-1.1-1.1l0,0c0,0,0.6-1.1,1.3-1
			l0,0C17.5,27.3,17.9,27.8,17.9,28.5z"/>
		<path class="st1" d="M20.8,30.5L20.8,30.5c-0.6,0-1-0.5-1.1-1.1l0,0c0-0.6,0.9-1.2,0.9-1.3l0,0c0,0,1.2,0.4,1.2,1.1l0,0
			C21.9,29.8,21.4,30.4,20.8,30.5z"/>
		<g class="st2">
			<path class="st1" d="M1.9,3.4c0,0.1,0,0.2,0,0.3s0,0.3,0,0.5s0,0.4,0,0.6s0,0.5,0,0.8c0.3,0,0.6,0,0.8,0c0.3,0,0.5,0,0.8,0
				c0.3,0,0.5,0,0.8,0c0.3,0,0.5,0,0.8,0c0-0.2,0-0.4,0-0.6s0-0.4,0-0.6s0-0.5,0-0.7s0-0.5,0.1-0.8c0,0,0-0.1,0-0.1
				c0,0,0.1-0.1,0.1-0.1c0,0,0.1,0,0.1,0s0.1,0,0.1,0c0.1,0,0.1,0,0.2,0c0.1,0,0.1,0,0.2,0.1c0,0.3-0.1,0.6-0.1,0.9s0,0.6-0.1,0.9
				s0,0.6,0,0.8s0,0.5,0,0.8s0,0.6,0,0.8s0,0.6,0,0.9c0,0.2,0,0.4,0,0.5s0,0.3,0.1,0.4s0.1,0.2,0.2,0.2S6.1,9,6.2,9
				c0.1,0,0.2,0,0.2,0c0.1,0,0.2,0,0.3-0.1l0.1,0.2C6.7,9.2,6.6,9.2,6.4,9.3S6.2,9.4,6.1,9.4S5.9,9.4,5.8,9.5c-0.1,0-0.2,0-0.3,0
				c-0.1,0-0.2,0-0.3-0.1S5.1,9.3,5.1,9.2S5,9,4.9,8.8s0-0.3,0-0.6V7.6c0-0.2,0-0.3,0-0.4s0-0.3,0-0.4s0-0.3,0-0.4s0-0.2,0-0.4
				C4.6,6,4.4,6,4.1,6S3.6,6,3.4,6S2.9,6,2.6,6s-0.5,0-0.8,0L1.7,9.4L1,9.4l-0.1,0C1,8.9,1,8.3,1,7.8s0-1,0-1.5s0-0.9,0-1.4
				s0-0.9,0-1.4c0-0.1,0-0.2,0-0.2c0-0.1,0-0.1-0.1-0.2S0.9,3.1,0.9,3.1S0.7,3,0.6,3c-0.1,0-0.3,0-0.5,0l0-0.2
				c0.3-0.1,0.5-0.1,0.7-0.2c0.2,0,0.4-0.1,0.5-0.1c0.1,0,0.2,0,0.3,0.1s0.1,0.1,0.2,0.2c0,0.1,0.1,0.1,0.1,0.2S1.9,3.3,1.9,3.4z"/>
			<path class="st1" d="M9.5,6.3c0-0.2,0-0.3-0.1-0.4S9.3,5.7,9.2,5.7S9,5.5,8.9,5.5S8.7,5.4,8.6,5.4c-0.1,0-0.3,0-0.4,0
				S8.1,5.6,8,5.6S7.9,5.7,7.9,5.8s0,0.1,0,0.2c0,0.1,0,0.2,0.1,0.3C7.9,6.4,8,6.5,8,6.6l0,0C7.9,6.7,7.8,6.7,7.7,6.7
				c-0.1,0-0.1,0-0.2,0c-0.1,0-0.1-0.1-0.1-0.1S7.3,6.5,7.3,6.4s0-0.1,0-0.2c0-0.1,0-0.2,0.1-0.3s0.1-0.2,0.2-0.3s0.2-0.2,0.3-0.2
				s0.2-0.1,0.4-0.2c0.1,0,0.3-0.1,0.4-0.1c0.1,0,0.3,0,0.4,0c0.2,0,0.4,0,0.5,0.1s0.3,0.1,0.4,0.2S10,5.6,10,5.8s0.1,0.3,0.1,0.5
				c0,0.1,0,0.3,0,0.4s0,0.3,0,0.5s0,0.3,0,0.5s0,0.4,0,0.5c0,0.3,0.1,0.5,0.2,0.6s0.2,0.2,0.4,0.2c0.2,0,0.3-0.1,0.5-0.2l0.1,0.1
				c-0.1,0.1-0.3,0.2-0.4,0.3s-0.3,0.1-0.5,0.1c-0.1,0-0.2,0-0.4-0.1S9.7,9.3,9.6,9.2C9.5,9.1,9.5,9,9.4,8.9S9.4,8.6,9.4,8.4
				c0-0.1,0-0.1,0-0.2s0-0.1,0-0.2h0C9.3,8.3,9.2,8.5,9.1,8.6S8.9,8.9,8.7,9.1C8.6,9.2,8.4,9.3,8.3,9.4C8.1,9.5,8,9.5,7.8,9.5
				c-0.1,0-0.3,0-0.4-0.1S7.3,9.3,7.2,9.2S7,9.1,7,8.9S6.9,8.7,6.9,8.6c0-0.2,0-0.3,0.1-0.5s0.2-0.3,0.3-0.4s0.2-0.2,0.4-0.3
				C7.8,7.4,8,7.3,8.2,7.2s0.4-0.1,0.6-0.1c0.2,0,0.4,0,0.6,0c0-0.1,0-0.2,0-0.4S9.5,6.5,9.5,6.3z M7.7,8.4c0,0.1,0,0.1,0,0.2
				c0,0.1,0,0.1,0.1,0.2s0.1,0.1,0.1,0.1s0.1,0,0.2,0c0.1,0,0.2,0,0.3-0.1s0.2-0.1,0.3-0.2s0.2-0.2,0.3-0.3s0.2-0.2,0.2-0.3
				s0.1-0.2,0.2-0.4c0-0.1,0.1-0.3,0.1-0.4c-0.1,0-0.3,0-0.4,0c-0.1,0-0.3,0-0.4,0.1S8.3,7.5,8.2,7.5S8,7.7,7.9,7.7S7.8,7.9,7.7,8
				C7.7,8.1,7.7,8.2,7.7,8.4z"/>
			<path class="st1" d="M10.8,5.4c0.2-0.1,0.4-0.1,0.6-0.2s0.3-0.1,0.4-0.1s0.2,0,0.2,0c0.1,0,0.1,0,0.1,0c0,0,0.1,0,0.1,0
				c0,0,0.1,0,0.1,0.1s0.1,0.1,0.1,0.1s0,0.1,0,0.2c0,0,0,0.1,0,0.2s0,0.2,0,0.4s0,0.3,0,0.6c0,0.2,0,0.5,0,0.8l0,0
				c0.2-0.4,0.3-0.7,0.5-1s0.4-0.5,0.5-0.7s0.4-0.4,0.5-0.5c0.2-0.1,0.4-0.2,0.5-0.2c0.1,0,0.3,0,0.4,0.1c0.1,0.1,0.2,0.1,0.3,0.2
				c0.1,0.1,0.1,0.2,0.2,0.3c0.1,0.1,0.1,0.2,0.1,0.3c0,0.1,0.1,0.2,0.1,0.4s0,0.2,0,0.3c0,0.3,0,0.6-0.1,0.8S15.3,8,15.2,8.2
				c-0.1,0.2-0.2,0.4-0.4,0.6S14.6,9,14.4,9.2c-0.2,0.1-0.3,0.2-0.5,0.3s-0.4,0.1-0.5,0.1c-0.2,0-0.4,0-0.6-0.1s-0.3-0.2-0.5-0.3
				c0,0.5,0,1-0.1,1.5s0,1.1,0,1.6l-0.6,0.1l-0.1,0c0-0.4,0.1-0.7,0.1-1.1c0-0.4,0-0.8,0.1-1.2s0-0.8,0.1-1.2s0-0.8,0-1.1
				s0-0.7,0-0.9s0-0.5,0-0.7c0-0.1,0-0.1,0-0.2c0-0.1,0-0.1,0-0.1s-0.1-0.1-0.1-0.1s-0.1,0-0.2,0c-0.1,0-0.2,0-0.3,0s-0.2,0-0.4,0.1
				L10.8,5.4z M12.3,8.7c0.2,0.1,0.3,0.2,0.5,0.3s0.3,0.1,0.5,0.1c0.2,0,0.4,0,0.6-0.1s0.3-0.2,0.5-0.4s0.2-0.4,0.3-0.7
				s0.1-0.6,0.1-0.9c0-0.1,0-0.3,0-0.4s-0.1-0.3-0.1-0.4c0-0.1-0.1-0.2-0.2-0.3c-0.1-0.1-0.2-0.1-0.3-0.1c-0.1,0-0.2,0-0.4,0.1
				c-0.1,0.1-0.2,0.1-0.3,0.2c-0.1,0.1-0.2,0.2-0.3,0.4S13.1,6.8,13,7c-0.1,0.2-0.2,0.3-0.2,0.5c-0.1,0.2-0.1,0.3-0.2,0.5
				s-0.1,0.3-0.1,0.4S12.4,8.6,12.3,8.7z"/>
			<path class="st1" d="M15.8,5.4c0.2-0.1,0.4-0.1,0.6-0.2s0.3-0.1,0.4-0.1s0.2,0,0.2,0c0.1,0,0.1,0,0.1,0c0,0,0.1,0,0.1,0
				c0,0,0.1,0,0.1,0.1s0.1,0.1,0.1,0.1s0,0.1,0,0.2c0,0,0,0.1,0,0.2s0,0.2,0,0.4s0,0.3,0,0.6c0,0.2,0,0.5,0,0.8l0,0
				c0.2-0.4,0.3-0.7,0.5-1s0.4-0.5,0.5-0.7s0.4-0.4,0.5-0.5c0.2-0.1,0.4-0.2,0.5-0.2c0.1,0,0.3,0,0.4,0.1C20,5.2,20,5.3,20.1,5.4
				c0.1,0.1,0.1,0.2,0.2,0.3c0.1,0.1,0.1,0.2,0.1,0.3c0,0.1,0.1,0.2,0.1,0.4s0,0.2,0,0.3c0,0.3,0,0.6-0.1,0.8S20.3,8,20.2,8.2
				c-0.1,0.2-0.2,0.4-0.4,0.6S19.5,9,19.4,9.2c-0.2,0.1-0.3,0.2-0.5,0.3s-0.4,0.1-0.5,0.1c-0.2,0-0.4,0-0.6-0.1s-0.3-0.2-0.5-0.3
				c0,0.5,0,1-0.1,1.5s0,1.1,0,1.6l-0.6,0.1l-0.1,0c0-0.4,0.1-0.7,0.1-1.1c0-0.4,0-0.8,0.1-1.2s0-0.8,0.1-1.2s0-0.8,0-1.1
				s0-0.7,0-0.9s0-0.5,0-0.7c0-0.1,0-0.1,0-0.2c0-0.1,0-0.1,0-0.1s-0.1-0.1-0.1-0.1s-0.1,0-0.2,0c-0.1,0-0.2,0-0.3,0s-0.2,0-0.4,0.1
				L15.8,5.4z M17.3,8.7c0.2,0.1,0.3,0.2,0.5,0.3s0.3,0.1,0.5,0.1c0.2,0,0.4,0,0.6-0.1s0.3-0.2,0.5-0.4s0.2-0.4,0.3-0.7
				s0.1-0.6,0.1-0.9c0-0.1,0-0.3,0-0.4s-0.1-0.3-0.1-0.4c0-0.1-0.1-0.2-0.2-0.3c-0.1-0.1-0.2-0.1-0.3-0.1c-0.1,0-0.2,0-0.4,0.1
				c-0.1,0.1-0.2,0.1-0.3,0.2c-0.1,0.1-0.2,0.2-0.3,0.4S18,6.8,17.9,7c-0.1,0.2-0.2,0.3-0.2,0.5c-0.1,0.2-0.1,0.3-0.2,0.5
				s-0.1,0.3-0.1,0.4S17.3,8.6,17.3,8.7z"/>
			<path class="st1" d="M22.5,9.4c-0.1-0.2-0.1-0.4-0.2-0.6s-0.1-0.4-0.2-0.6S22.1,7.8,22,7.6S21.9,7.2,21.8,7s-0.1-0.3-0.2-0.5
				c0-0.2-0.1-0.3-0.1-0.4c0-0.1-0.1-0.2-0.1-0.3c0-0.1-0.1-0.1-0.1-0.2s-0.1-0.1-0.1-0.1s-0.1,0-0.1,0c-0.1,0-0.1,0-0.2,0
				s-0.2,0-0.3,0.1l0-0.2c0.1,0,0.2-0.1,0.3-0.1s0.2-0.1,0.3-0.1s0.2,0,0.3-0.1s0.1,0,0.2,0c0.1,0,0.1,0,0.1,0s0.1,0,0.1,0.1
				c0,0,0.1,0.1,0.1,0.2s0.1,0.2,0.1,0.3c0,0.1,0.1,0.2,0.1,0.3c0,0.1,0.1,0.2,0.1,0.4s0.1,0.3,0.1,0.5s0.1,0.4,0.2,0.5
				s0.1,0.4,0.2,0.6s0.1,0.4,0.1,0.6c0.1-0.3,0.2-0.5,0.3-0.8c0.1-0.3,0.2-0.6,0.3-0.8s0.2-0.6,0.3-0.8s0.2-0.5,0.3-0.8
				c0,0,0-0.1,0.1-0.1s0.1,0,0.1-0.1c0,0,0.1,0,0.1,0c0,0,0.1,0,0.1,0c0.1,0,0.1,0,0.2,0c0.1,0,0.1,0,0.2,0.1
				c-0.1,0.1-0.2,0.3-0.3,0.5c-0.1,0.2-0.2,0.4-0.3,0.6s-0.2,0.4-0.3,0.6s-0.2,0.4-0.3,0.7S23.6,8,23.5,8.2
				c-0.1,0.2-0.2,0.4-0.3,0.7c-0.1,0.2-0.2,0.4-0.3,0.7c-0.1,0.2-0.2,0.4-0.2,0.6c-0.1,0.2-0.2,0.4-0.2,0.6
				c-0.1,0.2-0.2,0.4-0.2,0.5c-0.1,0.2-0.2,0.3-0.2,0.4c-0.1,0.1-0.2,0.2-0.3,0.3s-0.2,0.2-0.3,0.2s-0.3,0.1-0.4,0.1
				c-0.1,0-0.2,0-0.2,0s-0.1-0.1-0.2-0.1c-0.1,0-0.1-0.1-0.1-0.1s0-0.1,0-0.2c0-0.1,0-0.1,0.1-0.2s0.1-0.1,0.2-0.2
				c0.1,0.1,0.2,0.1,0.2,0.1s0.2,0,0.2,0c0.2,0,0.3,0,0.4-0.1s0.2-0.2,0.4-0.4s0.2-0.4,0.3-0.7s0.2-0.6,0.4-0.9l0.1-0.2L22.5,9.4z"
				/>
			<path class="st1" d="M25.4,7.6c0,0,0,0.1,0,0.1s0,0.1,0,0.1c0,0.2,0,0.4,0.1,0.6c0.1,0.2,0.1,0.3,0.3,0.4S26,9,26.2,9
				c0.2,0,0.3,0.1,0.5,0.1s0.4,0,0.6-0.1s0.3-0.1,0.5-0.2c0.1-0.1,0.2-0.2,0.3-0.4c0.1-0.2,0.1-0.3,0.1-0.6c0-0.1,0-0.3-0.1-0.4
				c0-0.1-0.1-0.2-0.2-0.3c-0.1-0.1-0.1-0.2-0.2-0.3c-0.1-0.1-0.2-0.2-0.3-0.2c-0.1-0.1-0.2-0.1-0.3-0.2c-0.1-0.1-0.2-0.1-0.3-0.2
				c-0.1-0.1-0.2-0.1-0.4-0.2C26.3,6,26.1,6,26,5.9s-0.2-0.2-0.3-0.3s-0.2-0.2-0.2-0.3s-0.1-0.2-0.2-0.4s-0.1-0.3-0.1-0.5
				c0-0.2,0-0.4,0.1-0.6c0.1-0.2,0.1-0.3,0.2-0.5c0.1-0.2,0.2-0.3,0.3-0.4c0.1-0.1,0.3-0.2,0.4-0.3c0.2-0.1,0.3-0.1,0.5-0.2
				c0.2,0,0.4-0.1,0.5-0.1c0.1,0,0.2,0,0.3,0c0.1,0,0.2,0,0.3,0s0.2,0,0.3,0.1c0.1,0,0.2,0.1,0.2,0.1s0.1,0.1,0.2,0.1
				s0.1,0.1,0.1,0.1c0,0.1,0,0.1,0,0.2c0,0.1,0,0.2,0,0.3c0,0.1,0,0.2,0,0.4c0,0.1,0,0.3,0,0.4l-0.3,0c0-0.1,0-0.1,0-0.2
				c0-0.2,0-0.4-0.1-0.5c-0.1-0.1-0.1-0.3-0.2-0.4c-0.1-0.1-0.2-0.2-0.4-0.2c-0.1,0-0.3-0.1-0.5-0.1s-0.3,0-0.5,0.1
				c-0.2,0.1-0.3,0.1-0.4,0.2C26.1,3.3,26,3.4,26,3.6s-0.1,0.3-0.1,0.5c0,0.1,0,0.3,0.1,0.4s0.1,0.2,0.2,0.3
				c0.1,0.1,0.1,0.2,0.2,0.3s0.2,0.2,0.3,0.2s0.2,0.1,0.3,0.2s0.2,0.1,0.4,0.2c0.1,0.1,0.2,0.1,0.4,0.2C27.8,5.9,27.9,6,28,6.1
				s0.2,0.2,0.3,0.3c0.1,0.1,0.2,0.2,0.2,0.3c0.1,0.1,0.1,0.2,0.2,0.4c0,0.1,0.1,0.3,0.1,0.4c0,0.3,0,0.5-0.1,0.7
				c-0.1,0.2-0.2,0.4-0.3,0.5S28.1,9,28,9.1c-0.2,0.1-0.3,0.2-0.5,0.3S27.1,9.4,27,9.5s-0.3,0-0.5,0c-0.2,0-0.4,0-0.5,0
				c-0.2,0-0.3-0.1-0.4-0.1s-0.2-0.1-0.3-0.1c-0.1-0.1-0.1-0.1-0.1-0.2c0-0.1,0-0.3,0-0.6s0-0.5,0-0.9L25.4,7.6z"/>
		</g>
		<g class="st2">
			<path class="st1" d="M32.6,9.4c-0.1-0.4-0.1-0.8-0.2-1.2c-0.1-0.4-0.2-0.8-0.3-1.2C32,7.2,32,7.3,31.9,7.5s-0.1,0.3-0.2,0.4
				c-0.1,0.1-0.2,0.3-0.2,0.4c-0.1,0.1-0.2,0.3-0.3,0.4C31.1,8.9,31,9,31,9.1s-0.2,0.2-0.2,0.3l-0.3,0c0-0.2-0.1-0.4-0.1-0.6
				c0-0.2-0.1-0.4-0.1-0.6s-0.1-0.4-0.1-0.6S30,7.2,30,7c0-0.2-0.1-0.3-0.1-0.5c0-0.2-0.1-0.3-0.1-0.4c0-0.1-0.1-0.2-0.1-0.3
				s-0.1-0.1-0.1-0.2s-0.1-0.1-0.1-0.1s-0.1,0-0.1,0c-0.1,0-0.1,0-0.2,0s-0.2,0-0.3,0.1l0-0.2c0.3-0.1,0.5-0.2,0.7-0.2
				c0.2-0.1,0.3-0.1,0.4-0.1c0,0,0.1,0,0.1,0s0.1,0,0.1,0.1s0.1,0.1,0.1,0.2s0.1,0.2,0.1,0.3c0,0.1,0.1,0.2,0.1,0.3s0.1,0.3,0.1,0.4
				c0,0.2,0.1,0.3,0.1,0.5s0.1,0.4,0.1,0.6s0.1,0.4,0.1,0.6c0,0.2,0.1,0.4,0.1,0.6c0-0.1,0.1-0.1,0.1-0.2s0.1-0.2,0.2-0.3
				s0.1-0.2,0.2-0.4c0.1-0.1,0.1-0.2,0.2-0.3s0.1-0.2,0.1-0.3s0.1-0.2,0.1-0.2c0,0,0-0.1,0-0.1c0,0,0-0.1,0-0.1c0-0.1,0-0.1,0-0.2
				s0-0.1,0-0.2s0-0.1,0-0.2s0-0.1,0-0.2c0-0.1,0-0.1,0-0.1c0-0.1,0-0.1,0.1-0.1s0.1-0.1,0.2-0.1c0.1,0,0.1,0,0.2,0
				c0.1,0,0.1,0,0.2,0.1c0.1,0.2,0.1,0.5,0.2,0.8c0.1,0.3,0.1,0.5,0.2,0.8c0.1,0.3,0.1,0.5,0.2,0.8s0.1,0.5,0.2,0.8
				c0.1-0.2,0.3-0.4,0.4-0.7s0.2-0.5,0.4-0.7C34,7.1,34,6.9,34.1,6.6s0.1-0.4,0.1-0.7c0-0.1,0-0.2,0-0.3c0-0.1,0-0.2-0.1-0.2
				S34,5.3,34,5.3s-0.1-0.1-0.2-0.2l0-0.1c0,0,0.1,0,0.1,0S34,5,34,5c0.3,0,0.5,0.1,0.6,0.2s0.2,0.3,0.2,0.5c0,0.2,0,0.4-0.1,0.6
				c-0.1,0.2-0.2,0.4-0.3,0.7s-0.2,0.5-0.4,0.7c-0.1,0.2-0.3,0.5-0.4,0.7S33.4,8.8,33.2,9c-0.1,0.2-0.3,0.4-0.4,0.5L32.6,9.4z"/>
		</g>
		<g class="st2">
			<path class="st1" d="M38.2,8.4C38.2,8.4,38.2,8.5,38.2,8.4C38.2,8.5,38.3,8.5,38.2,8.4c0.1,0.1,0.1,0.1,0.1,0.1c0,0,0,0,0,0
				c0,0,0,0,0,0C38.2,8.8,38.1,8.9,38,9s-0.3,0.2-0.4,0.3c-0.1,0.1-0.3,0.1-0.4,0.2s-0.3,0.1-0.4,0.1c-0.2,0-0.4,0-0.6-0.1
				S35.7,9.1,35.6,9s-0.3-0.4-0.3-0.6c-0.1-0.2-0.1-0.5-0.1-0.7c0-0.2,0-0.4,0.1-0.6s0.1-0.4,0.2-0.6s0.2-0.4,0.3-0.5
				c0.1-0.2,0.3-0.3,0.4-0.4c0.2-0.1,0.3-0.2,0.5-0.3s0.4-0.1,0.6-0.1c0.1,0,0.3,0,0.4,0.1s0.2,0.1,0.3,0.2c0.1,0.1,0.2,0.2,0.2,0.3
				s0.1,0.2,0.1,0.4c0,0.2-0.1,0.4-0.2,0.5s-0.3,0.3-0.5,0.4s-0.5,0.2-0.8,0.3s-0.6,0.1-1,0.1v0c0,0.3,0,0.5,0.1,0.7
				s0.2,0.4,0.3,0.5c0.1,0.1,0.2,0.3,0.4,0.3S36.9,9,37.1,9c0.2,0,0.4,0,0.5-0.1S38,8.6,38.2,8.4z M37.6,6.1c0-0.1,0-0.2,0-0.3
				s-0.1-0.1-0.1-0.2c-0.1-0.1-0.1-0.1-0.2-0.1s-0.2,0-0.2,0c-0.1,0-0.2,0-0.3,0.1s-0.2,0.1-0.3,0.2c-0.1,0.1-0.2,0.2-0.2,0.3
				c-0.1,0.1-0.1,0.2-0.2,0.3s-0.1,0.2-0.1,0.4s0,0.2-0.1,0.4c0.3,0,0.5-0.1,0.7-0.1s0.4-0.1,0.6-0.2c0.2-0.1,0.3-0.2,0.3-0.3
				C37.6,6.3,37.6,6.2,37.6,6.1z"/>
			<path class="st1" d="M41.9,8.4C41.9,8.4,41.9,8.5,41.9,8.4C41.9,8.5,42,8.5,41.9,8.4C42,8.5,42,8.5,42,8.5c0,0,0,0,0,0
				c0,0,0,0,0,0c-0.1,0.2-0.2,0.3-0.4,0.4s-0.3,0.2-0.4,0.3c-0.1,0.1-0.3,0.1-0.4,0.2s-0.3,0.1-0.4,0.1c-0.2,0-0.4,0-0.6-0.1
				S39.4,9.1,39.3,9S39,8.6,39,8.4c-0.1-0.2-0.1-0.5-0.1-0.7c0-0.2,0-0.4,0.1-0.6s0.1-0.4,0.2-0.6s0.2-0.4,0.3-0.5
				c0.1-0.2,0.3-0.3,0.4-0.4c0.2-0.1,0.3-0.2,0.5-0.3s0.4-0.1,0.6-0.1c0.1,0,0.3,0,0.4,0.1s0.2,0.1,0.3,0.2c0.1,0.1,0.2,0.2,0.2,0.3
				s0.1,0.2,0.1,0.4c0,0.2-0.1,0.4-0.2,0.5s-0.3,0.3-0.5,0.4s-0.5,0.2-0.8,0.3s-0.6,0.1-1,0.1v0c0,0.3,0,0.5,0.1,0.7
				s0.2,0.4,0.3,0.5c0.1,0.1,0.2,0.3,0.4,0.3S40.6,9,40.8,9c0.2,0,0.4,0,0.5-0.1S41.7,8.6,41.9,8.4z M41.3,6.1c0-0.1,0-0.2,0-0.3
				s-0.1-0.1-0.1-0.2C41.1,5.6,41,5.5,41,5.5s-0.2,0-0.2,0c-0.1,0-0.2,0-0.3,0.1s-0.2,0.1-0.3,0.2C40,5.8,39.9,5.9,39.9,6
				c-0.1,0.1-0.1,0.2-0.2,0.3s-0.1,0.2-0.1,0.4s0,0.2-0.1,0.4c0.3,0,0.5-0.1,0.7-0.1s0.4-0.1,0.6-0.2c0.2-0.1,0.3-0.2,0.3-0.3
				C41.3,6.3,41.3,6.2,41.3,6.1z"/>
			<path class="st1" d="M44.1,3C44,3.4,44,3.8,43.9,4.2c-0.1,0.4-0.1,0.8-0.1,1.2c0.1,0,0.2,0,0.3,0s0.2,0,0.2,0s0.1,0,0.2,0
				s0.1,0,0.2,0c0.2,0,0.3,0,0.4,0c0,0,0,0.1,0,0.1s0,0.1,0,0.1c0,0.1,0,0.1-0.1,0.2s-0.2,0-0.3,0c-0.1,0-0.3,0-0.4,0s-0.3,0-0.5,0
				c0,0.2,0,0.4-0.1,0.6c0,0.2,0,0.4,0,0.6s0,0.3,0,0.5s0,0.3,0,0.4c0,0.2,0,0.4,0,0.6s0.1,0.3,0.1,0.4c0.1,0.1,0.1,0.2,0.2,0.3
				S44.2,9,44.4,9c0.1,0,0.2,0,0.4-0.1s0.3-0.1,0.4-0.2c0.1,0.1,0.1,0.1,0.1,0.2C45.1,9,45,9.1,44.9,9.2s-0.2,0.1-0.4,0.2
				s-0.2,0.1-0.3,0.1s-0.2,0-0.3,0c-0.1,0-0.3,0-0.4-0.1s-0.2-0.1-0.3-0.3S43.1,8.9,43,8.7S43,8.2,43,7.9c0-0.2,0-0.4,0-0.5
				s0-0.4,0-0.6s0-0.4,0-0.6s0-0.4,0.1-0.6c-0.2,0-0.3,0-0.4,0s-0.2,0-0.3,0.1c0,0,0,0,0,0c0,0,0-0.1,0.1-0.1s0.1-0.1,0.2-0.1
				s0.2-0.1,0.3-0.1s0.2,0,0.3,0c0-0.4,0.1-0.8,0.1-1.2s0.1-0.7,0.2-1c0-0.1,0-0.1,0.1-0.1S43.5,3,43.6,3s0.1,0,0.1,0s0.1,0,0.1,0
				c0.1,0,0.1,0,0.2,0S44.1,3,44.1,3z"/>
			<path class="st1" d="M45.9,8.3c0,0.1,0.1,0.3,0.1,0.4s0.1,0.2,0.2,0.3s0.2,0.1,0.3,0.2s0.2,0,0.3,0c0.1,0,0.2,0,0.3,0
				S47.5,9,47.5,9s0.1-0.1,0.2-0.2s0.1-0.2,0.1-0.3c0-0.1,0-0.2-0.1-0.3S47.6,8.1,47.5,8s-0.2-0.1-0.3-0.2S47,7.7,46.9,7.7
				c-0.1,0-0.2-0.1-0.3-0.1c-0.1,0-0.2-0.1-0.3-0.2S46.1,7.2,46,7.2S45.9,7,45.8,6.9c-0.1-0.1-0.1-0.2-0.1-0.3
				c0-0.1-0.1-0.2-0.1-0.3c0-0.1,0-0.3,0.1-0.4s0.1-0.2,0.2-0.3c0.1-0.1,0.2-0.2,0.3-0.2s0.2-0.1,0.3-0.2s0.2-0.1,0.4-0.1
				c0.1,0,0.3,0,0.4,0c0.2,0,0.3,0,0.4,0.1c0.1,0,0.3,0.1,0.4,0.2s0.2,0.1,0.2,0.2s0.1,0.2,0.1,0.3c0,0,0,0.1,0,0.1s0,0.1-0.1,0.1
				s-0.1,0.1-0.1,0.1s-0.1,0-0.2,0c-0.1,0-0.2,0-0.3,0l0,0c0-0.1,0-0.1,0.1-0.2s0-0.1,0-0.1c0-0.1,0-0.2-0.1-0.2
				c0-0.1-0.1-0.1-0.2-0.2s-0.1-0.1-0.2-0.1s-0.2,0-0.2,0c-0.1,0-0.3,0-0.4,0.1s-0.2,0.1-0.3,0.1c-0.1,0.1-0.1,0.1-0.2,0.2
				S46.1,6,46.1,6.1c0,0.1,0,0.2,0.1,0.3c0.1,0.1,0.1,0.2,0.2,0.2s0.2,0.1,0.3,0.2S47,6.9,47.1,7c0.1,0.1,0.3,0.1,0.4,0.2
				c0.1,0.1,0.3,0.2,0.4,0.3s0.2,0.2,0.3,0.3c0.1,0.1,0.1,0.3,0.1,0.4c0,0.2,0,0.4-0.1,0.5S48,9.1,47.9,9.2s-0.3,0.2-0.5,0.2
				c-0.2,0.1-0.4,0.1-0.6,0.1c-0.1,0-0.2,0-0.3,0s-0.2,0-0.3-0.1s-0.2-0.1-0.3-0.1c-0.1,0-0.2-0.1-0.2-0.2c-0.1-0.1-0.1-0.1-0.2-0.2
				c0-0.1-0.1-0.2-0.1-0.2c0-0.1,0-0.1,0-0.2s0.1-0.1,0.1-0.1s0.1-0.1,0.2-0.1C45.8,8.3,45.9,8.3,45.9,8.3L45.9,8.3z"/>
		</g>
	</g>
</g>
</svg>
