<svg xmlns="http://www.w3.org/2000/svg" viewBox="0 0 27.07 27.64"><defs><style>.cls-1{fill:none;stroke:#231815;stroke-miterlimit:10;}.cls-2{fill:#231815;}</style></defs><title>資產 9</title><g id="圖層_2" data-name="圖層 2"><g id="圖層_1-2" data-name="圖層 1"><path class="cls-1" d="M7.22,5S13-4.8,19.85,4.5C25.71,5.66,30.41,13.69,22,18c-3.89,1.08-6.12-.67-6.12-.67l-2.6.36L11,17.31s-4.39,1.84-4.88,1C2.37,19.63-4.92,7.45,7.22,5Z"/><polyline class="cls-1" points="6.03 18 7.28 21.51 19.78 21.51 21.03 18.24"/><path class="cls-1" d="M7.28,21.51s.38,5.75,1.63,5.63,10.12,0,10.12,0l.75-5.63"/><path class="cls-2" d="M14.3,4.43h0A1.06,1.06,0,0,1,13,5.32h0c-.65-.05-1-1.09-1.1-1.09h0s.63-1.09,1.28-1h0A1.17,1.17,0,0,1,14.3,4.43Z"/><path class="cls-2" d="M10.12,7.44h0a1.06,1.06,0,0,1-1-1.15h0c0-.65,1-1.14,1-1.22h0s1.16.49,1.18,1.14h0A1.17,1.17,0,0,1,10.12,7.44Z"/><path class="cls-2" d="M7.68,9.4h0a1.06,1.06,0,0,1-1.42-.62h0c-.29-.58.4-1.43.37-1.5h0s1.26,0,1.55.55h0A1.17,1.17,0,0,1,7.68,9.4Z"/><path class="cls-2" d="M5.21,11.27h0a1.06,1.06,0,0,1-1.26.89h0c-.65-.05-1-1.09-1.1-1.09h0S3.48,10,4.13,10h0A1.17,1.17,0,0,1,5.21,11.27Z"/><path class="cls-2" d="M9.48,12.34h0a1.06,1.06,0,0,1-1.26.89h0c-.65-.05-1-1.09-1.1-1.09h0s.63-1.09,1.28-1h0A1.17,1.17,0,0,1,9.48,12.34Z"/><path class="cls-2" d="M12.75,10.2h0a1.06,1.06,0,0,1-1.26.89h0c-.65-.05-1-1.09-1.1-1.09h0S11,8.91,11.67,9h0A1.17,1.17,0,0,1,12.75,10.2Z"/><path class="cls-2" d="M14.3,14.68h0a1.06,1.06,0,0,1-1.26.89h0c-.65-.05-1-1.09-1.1-1.09h0s.63-1.09,1.28-1h0A1.17,1.17,0,0,1,14.3,14.68Z"/><path class="cls-2" d="M6.66,15h0a1.06,1.06,0,0,1-1.26.89h0c-.65-.05-1-1.09-1.1-1.09h0s.63-1.09,1.28-1h0A1.17,1.17,0,0,1,6.66,15Z"/><path class="cls-2" d="M9.52,16.95h0c-.63.05-1-.45-1.09-1.1h0c-.05-.65.9-1.18.89-1.26h0s1.18.44,1.24,1.08h0A1.17,1.17,0,0,1,9.52,16.95Z"/></g></g></svg>