<svg xmlns="http://www.w3.org/2000/svg" viewBox="0 0 460.97 321.44"><defs><style>.cls-1{fill:#c8bbb2;}.cls-2,.cls-3,.cls-5{fill:#c2b3a9;}.cls-2,.cls-4{stroke:#c2b3a9;stroke-miterlimit:10;}.cls-3{font-size:12px;font-family:DFYuan-Bd-HK-BF, DFYuanBold-B5;}.cls-4{fill:none;stroke-width:3px;}</style></defs><title>資產 1</title><g id="圖層_2" data-name="圖層 2"><g id="圖層_1-2" data-name="圖層 1"><path class="cls-1" d="M43.42,296.35c-.14.45.31.37.37.45C43.86,296,43.3,296.34,43.42,296.35Z" transform="translate(0 -1.05)"/><polygon class="cls-1" points="44.13 287.6 44.27 287.77 44.1 286.58 44.13 287.6"/><path class="cls-1" d="M45.68,281.64c-.84.51-.45,2.57-1,3.76l-.2.17.44.69A27.65,27.65,0,0,1,45.68,281.64Z" transform="translate(0 -1.05)"/><path class="cls-1" d="M48,278.24c-.32.17-.06-.86-.28.85a1.39,1.39,0,0,1,.1-.14C47.87,278.8,47.91,278.59,48,278.24Z" transform="translate(0 -1.05)"/><path class="cls-1" d="M47.84,279c-.14.74.33-.43,0,0Z" transform="translate(0 -1.05)"/><path class="cls-1" d="M48.47,275.52v1c.21-.17.45-1,.49-.67C49.07,274.85,48.86,275,48.47,275.52Z" transform="translate(0 -1.05)"/><path class="cls-1" d="M48.18,274.48l0,.53C48.25,274.93,48.3,274.81,48.18,274.48Z" transform="translate(0 -1.05)"/><path class="cls-1" d="M48.12,276.12l0-1.11c-.15.11-.37.08,0,.51C47.94,275.38,48.09,275.63,48.12,276.12Z" transform="translate(0 -1.05)"/><path class="cls-1" d="M47.87,276.7c-.28.51-.54,1.19-.55.16C47,278.74,47.54,278.57,47.87,276.7Z" transform="translate(0 -1.05)"/><path class="cls-1" d="M45,281.12l-.36.68.09.68C44.73,282.14,45.27,281.12,45,281.12Z" transform="translate(0 -1.05)"/><path class="cls-1" d="M50.26,269.57c-.13-.1-.47.23-.68.26v.76C49.77,270.24,50,269.57,50.26,269.57Z" transform="translate(0 -1.05)"/><path class="cls-1" d="M49.58,269.83V268.7C49.33,269.65,49.41,269.85,49.58,269.83Z" transform="translate(0 -1.05)"/><polygon class="cls-1" points="47.45 273.08 47.56 274.96 47.52 272.74 47.45 273.08"/><polygon class="cls-1" points="51.25 264.45 51.45 265.13 51.19 263.93 51.25 264.45"/><path class="cls-1" d="M51.84,262.77c.18.52.63-.5.69,0a6.68,6.68,0,0,0-.05-2.05A4.4,4.4,0,0,1,51.84,262.77Z" transform="translate(0 -1.05)"/><path class="cls-1" d="M52.38,259.7a7.53,7.53,0,0,0,.09,1A3.88,3.88,0,0,0,52.38,259.7Z" transform="translate(0 -1.05)"/><path class="cls-1" d="M50.09,266.9a1.23,1.23,0,0,0,.62-.74l-.52.32Z" transform="translate(0 -1.05)"/><path class="cls-1" d="M50.18,266.49h0l.24-.9Z" transform="translate(0 -1.05)"/><path class="cls-1" d="M50.07,267l0-.11C50,266.93,50,266.95,50.07,267Z" transform="translate(0 -1.05)"/><path class="cls-1" d="M48.49,271.41c-.08-.68,0-2.05-.68-.87C48,271.06,48.37,270.38,48.49,271.41Z" transform="translate(0 -1.05)"/><path class="cls-1" d="M49.42,267.4l-.37,1.11c.12,0,.32-.16.37.18Z" transform="translate(0 -1.05)"/><polygon class="cls-1" points="49.42 265.77 49.42 266.35 49.56 265.94 49.42 265.77"/><path class="cls-1" d="M51.53,261.56a5.64,5.64,0,0,1,.16-1.69,16.2,16.2,0,0,0-.59,1.93C51.21,261.92,51.38,262.26,51.53,261.56Z" transform="translate(0 -1.05)"/><path class="cls-1" d="M50.84,263.94v-.11C50.79,263.89,50.76,263.94,50.84,263.94Z" transform="translate(0 -1.05)"/><polygon class="cls-1" points="53.19 252.87 53.09 252.94 53.16 252.98 53.19 252.87"/><path class="cls-1" d="M51,261.89a1.69,1.69,0,0,0-.1,1.1,11.34,11.34,0,0,1,.21-1.19C51.05,261.74,51,261.72,51,261.89Z" transform="translate(0 -1.05)"/><path class="cls-1" d="M52.59,258a6.86,6.86,0,0,0-.44.79C52.34,258.56,52.67,258.11,52.59,258Z" transform="translate(0 -1.05)"/><path class="cls-1" d="M51,263.69v.08C51.12,263.63,51.07,263.64,51,263.69Z" transform="translate(0 -1.05)"/><path class="cls-1" d="M51,263.69a3.44,3.44,0,0,0-.1-.71,6.13,6.13,0,0,0-.05.85A.73.73,0,0,1,51,263.69Z" transform="translate(0 -1.05)"/><path class="cls-1" d="M51,251.44c.36.18.39,1.55-.31,2.56,0,1.16,1.46.76,2.4,0-.16-.08-.31-.11-.25-1.29-.31.34-1.13,2.36-1.23,1.33.18-1.53.45-1.18.84-1.85-.64.49-.21-2.06-1-1.92l-.09,1.36C51.24,251.62,51.19,251.1,51,251.44Z" transform="translate(0 -1.05)"/><path class="cls-1" d="M52.51,256.11l-.07.47a5.67,5.67,0,0,1,.93-1.46c0-.81-.09-1-.21-1.09l-.63,2.25Z" transform="translate(0 -1.05)"/><path class="cls-1" d="M51.91,258.65c-.34-.47-.22-1.61-.85-1-.31,1.36.12,1,.1,1.89.42-2.22.08.69.7-.84a10.23,10.23,0,0,1-.17,1.21c.14-.38.3-.75.46-1.09l0,0h0c-.07.08-.11.1-.06,0a.17.17,0,0,1,0,0,.42.42,0,0,1-.13-.14c.24-.61.13-.07.13.14l.06,0h0l.32-2.24A12.53,12.53,0,0,0,51.91,258.65Z" transform="translate(0 -1.05)"/><path class="cls-1" d="M47.19,269.16a.11.11,0,0,1,.11,0C47.29,269,47.27,268.89,47.19,269.16Z" transform="translate(0 -1.05)"/><path class="cls-1" d="M47.66,268.31a1.26,1.26,0,0,1,0,.86c-.23.42-.2,0-.34-.06,0,.34,0,1.17.48.23l0-.17c.35-.85,1.15-1.86,1.17-1.69A3.22,3.22,0,0,0,47.66,268.31Z" transform="translate(0 -1.05)"/><path class="cls-1" d="M49.7,263.39l.23-1.88-.58.84h.23C49.24,263.38,49.56,263.22,49.7,263.39Z" transform="translate(0 -1.05)"/><polygon class="cls-1" points="53.45 252.71 53.83 253.06 53.48 251.85 53.45 252.71"/><polygon class="cls-1" points="54.01 250.33 54.37 250.52 54.3 249.84 54.01 250.33"/><path class="cls-1" d="M91.2,118.57l.1-.56A3.14,3.14,0,0,0,91.2,118.57Z" transform="translate(0 -1.05)"/><path class="cls-1" d="M89.72,122.29l.15.16C89.84,122.24,89.79,122.15,89.72,122.29Z" transform="translate(0 -1.05)"/><path class="cls-1" d="M70.21,193.72c.59-.66,1.41-1.34,1-1.38l-.49.11A3.42,3.42,0,0,1,70.21,193.72Z" transform="translate(0 -1.05)"/><path class="cls-1" d="M80.62,153.91l-.2.18.21.65Z" transform="translate(0 -1.05)"/><path class="cls-1" d="M79.12,152.78l.62-.91A5.57,5.57,0,0,0,79.12,152.78Z" transform="translate(0 -1.05)"/><path class="cls-1" d="M98.86,98l-.16-.77C98.31,98.22,98.69,97.89,98.86,98Z" transform="translate(0 -1.05)"/><path class="cls-1" d="M60.26,227.2a8.76,8.76,0,0,0,.71-1.6C60.51,226.34,60,226.89,60.26,227.2Z" transform="translate(0 -1.05)"/><path class="cls-1" d="M94.93,121.69c0-.34,0-.51-.08-.53C94.79,121.51,94.8,121.72,94.93,121.69Z" transform="translate(0 -1.05)"/><path class="cls-1" d="M61.5,223.67c-.07.11-.13.22-.2.33a8.35,8.35,0,0,1-.33,1.6A2.83,2.83,0,0,0,61.5,223.67Z" transform="translate(0 -1.05)"/><path class="cls-1" d="M131.71,25.74s.08-.1.13-.14S131.75,25.63,131.71,25.74Z" transform="translate(0 -1.05)"/><path class="cls-1" d="M146,7.08c-.08.21-.25.54-.4.86A3.57,3.57,0,0,0,146,7.08Z" transform="translate(0 -1.05)"/><path class="cls-1" d="M56.63,241.92c-.1.51,0,.09,0,0Z" transform="translate(0 -1.05)"/><path class="cls-1" d="M54.34,243.93a.3.3,0,0,0-.15-.25A.38.38,0,0,1,54.34,243.93Z" transform="translate(0 -1.05)"/><path class="cls-1" d="M60.3,218v0C60.19,218,60.21,218,60.3,218Z" transform="translate(0 -1.05)"/><path class="cls-1" d="M56.24,242.63a4.84,4.84,0,0,0,.29-.61A5,5,0,0,0,56.24,242.63Z" transform="translate(0 -1.05)"/><path class="cls-1" d="M56.47,242.58l-.15.43C56.37,243.09,56.43,243,56.47,242.58Z" transform="translate(0 -1.05)"/><path class="cls-1" d="M56.78,241.22a5.9,5.9,0,0,1-.25.8c.05-.09.09-.13.1-.1Z" transform="translate(0 -1.05)"/><path class="cls-1" d="M114.72,64.74l.08-.08C114.85,64.11,114.79,64.33,114.72,64.74Z" transform="translate(0 -1.05)"/><path class="cls-1" d="M70,179.5s0,0,0,.06l0-.07Z" transform="translate(0 -1.05)"/><path class="cls-1" d="M70.24,177.63a2,2,0,0,1-.24,1.87l1.38-.2Z" transform="translate(0 -1.05)"/><path class="cls-1" d="M94.56,109.57l-.84,1.08c0-1.71.6-2.7-.36-1.75,1.2.67-1.72,4.8-.52,5.47l-.58.7c.1-.23,0-.29.14-.52-1.22,1.33.46,1.52-.5,3.47-.37.67-.75,1.08-.71.55l-.3,1.69c-.2.45-.38.25-.18-.19l-.83,2.43,0,0a12.17,12.17,0,0,1,.06,1.73c-.42.54,0-.36-.24-.26l-.21,1.44c-.54.41-.43-.8,0-1.7-1.74.76-.12,1.21-1.85,3.62l.3-1.32c-1,.54-1.12,1.62-2.1,2.87.36-.25,2.18-2.42,2-.86a3.22,3.22,0,0,0-.52,1.77c-.45-.16-.62.64-1,1.6l-.58-.29c-.21,1.09.13,1.13.17,1.83a1.83,1.83,0,0,1-1.53,1.32c-.77,1.8,1.21-1,.52,1.22A12.57,12.57,0,0,0,83.64,140c-.6,1-.3-.32-.61,0l.13,1.12c-.1.23-.22.1-.28,0-.11.87.58.28.28,1.6.53.57-1.91,2.23-1.69,4.07-.31.32-.3-.32-.58-.28a18.32,18.32,0,0,0-.23,4l-.92,1.36c.84-.94.88.65.89,2,.36-.31.66-.58.83-.77l-.36,2.08c-.18.2-.32-.07-.46-.48,0,.15,0,.3,0,.41-.47.63-.69.14-.85-.48l.62-.58c-.2-.61-.44-1.21-.83-1.23a2.21,2.21,0,0,1-.06.7c-.06-.16-.12-.27-.2-.24s0,.3,0,.67l-.83.21.23.2-1.32,2.43c0,2.08.46,4-.26,7-.25-.9-.76-.43-1.33-.67.88-.59.52-2.36,1.18-3.83-.34.77-.56.5-.59.26l-.38,2.9c-.46-.23-.55.45-1,1.1,1.13-.22,0,2.24-.11,3.45-.34,0-.58-.41-.06-1.74-1.21,1.25.48,2.3-.61,3.56.1-.33.21-.49.09-.68,0,.86-.82,2.67-1,2.14l.1-.33c-.84,2.15-2.21,6.66-1.51,7.25a4.13,4.13,0,0,1-1-.79l1.43,4.78c-.58-.57-2.67.22-2.47-1.72a5.07,5.07,0,0,0-.71,2.28c.21-.33,1.29-.57,1.19-.06A12,12,0,0,0,68.57,184c.32-.49,1.22.46.92,1.29-.12-.18-1.1-.27-1.12-.62l.41,2.45c0-.59-.88-.38-1.33,0,.28-.15-.59,1.82-.66,2.41l.53-.82c-.9,2.33.78,2.82,0,5.16-.13-.35-1.15-1.13-1.66,0,.38.72,1.89,3.25,1.66,5.46l-.44.3-.14,1.71a32.44,32.44,0,0,1-1.6-6.31c-.53.81-.45.13-.84,1.48-.44.38-.22-.86-.12-1.26L63,198.35c.68.06-.09,2.57.49,2.62.1-1.2.25-2.39.37-3.58.7.06,1.19,2.5.44,4.68-.42.49-1-.77-1.25-.78a5.16,5.16,0,0,1-.41,2.38l-.07-1c-.6,1.16.26,2.26-.78,3.56-.19.5-1.28,1.28-.92,1.48,1-.62,3.3-.1,3.69.61a23.45,23.45,0,0,1-2,2.94c-.82.67-1-1.66-1.71-1.09.17.08.25.61.26.82-.31.49-.48-.38-.74.81.6.39-.75,2.35.39.71-.15,1.19-.49,1.17-.85,2.52.55-.3,1.09,1.62.94,2.81-.15-.11-.44.08-.57.17-.76,2.31-1.37,3.5-2,5.68-.21.16-.7,1.16-.86.63a3.1,3.1,0,0,1,0,1.38c-.93,1.15.32-1.53-.63-.72.36.19,0,1.89,0,2.92.67-.13.72-2.19.75-3.22.81.22,1.21,2.13,1,4.52-.3,1.87-.74.64-.71,1-1.08,3.37.62,3.29-.74,6-.83,1-1-.23-1.49-.08.21-1.53,1-2.18,1.21-3.19L56.24,234a4.3,4.3,0,0,1,.4-2c-.71.82-1.7,5.73-2.8,8.26.05.52,0,1.37.33,1l.14-.86c.62-.66.18,1.73.64.72a9.41,9.41,0,0,1-.49,4.09l-.67.14c.18,0,.62-.94.55-1.43.09.73-1.42,2.21-.83,3.13l.69-1c0,1.2.28,2.75-.26,4.1.75-.49,0-.34,1-1.16-1.07.64,1-3.56-.3-2.41,1.06-.81.79-1.68,1.81-2.83-.21,0-.49.37-.1-.77a1.24,1.24,0,0,1-.11-.3l0-.08,0,.06c0-.06,0-.06,0,0a1.43,1.43,0,0,1-.45.52c-.3-.7.19-2.56.12-3.26.27-.67.15.35.46,0l-.1-1c.46,0,1.23-1.65,1,.05l.42-1.46a6.53,6.53,0,0,0,.92-2.74c.28-.67,0-1.88.17-1.18l.36-2.38h.11c.68-2.26.57-4.88,2.06-7.26a10.84,10.84,0,0,1,.66-2.87l.44-.14c.14-1,1.23-2.83,1-3.36,1.31-.77,1.61-4.68,2.29-6.35l-.47-.21a25.12,25.12,0,0,0,.8-3.88l-.46,0c0-1.37,1.26-3.17,1.8-5.18.12.19-.07.68-.27,1,1.66-2.1.85-5.24,2.22-7.19a2.29,2.29,0,0,1,.41-1.3.45.45,0,0,0,0,.14c0-.05,0-.14.07-.22s.31-.43.46-.68a3.29,3.29,0,0,0-.43.56,12.5,12.5,0,0,0,.35-1.71l.54-.12,0-.15c.36-.55-.07-.55-.51-.34a4.16,4.16,0,0,0,0-.9c.9-.26.26-1.7,1.26-2.12-.26-.54.68-3.19,0-3.78.11,0,.22-.15.12.18a4.37,4.37,0,0,0,.58-2l.67-.11-.3-1.75c.66-.79,1-1.1,1.14-.06,0-2.4.32-1.85.25-3.92l.35.21c.2-.67.05-1.89.49-2.19,1.2-1.25,2.52-7.3,4.44-10.87-1.35.36,1.08-1.6.29-2,.34-.13.67-.61.68.08.42-2,1.43-2.75,1.17-4.33.34-.13.24.54.46.4,0-.17,0-.69.21-.84s.12.36.13.7c.64-2-.09-2.46-.79-2.87a2.18,2.18,0,0,0,.59-2.28c.37-.26.83-.75.49.5.28-.68,1.83-4.08,1.25-4.36a2.12,2.12,0,0,0,.38-1.15c.58-1.53.68-1.65,1.15-3.19l-.25.39c-.52-.86.29-1.32.65-2.56l.06.06c1.55-2.6.19-1.3,1.81-3.83h-.51c-.87-.61,1.47-2.23,1.69-4l-.47.48c0-1,2.22-2,2.66-2.78.15-.16,0,.35,0,.64,1.42-2.08-.48-.52,0-2.27.43-.2.66.71,1.14-.42.48-.47.18-3.73,1.4-5.05-.38.25-.75.5-.63-.36.38-1.24,2.19-2.91,1.85-4.3.13-.13.21-.16.28-.14.16-1,.84-3.13.64-3.85,1.88-.25,1.48-6,2.9-5.46l1-2.87.12.13a5.36,5.36,0,0,0,.66-3.31c.27-.38.27,0,.33,0a9.42,9.42,0,0,0,1.61-5.3l.55,0c0-.71,2.28-3.51,2.8-6.32a.44.44,0,0,1,.09.37,17.68,17.68,0,0,1,2.15-4.6c.82-1.42,1.4-2.68.79-3.56l.41-2.08c-1.19,2.41-.56-.67-1.27.22.32-1,1.58-2.3,1.15-1.07l-.16.15c.68.81,1.62-2.93,2.18-2.61,2-4.87,4.52-9.4,6.61-13.87l-.9.22.75-1.56c.34-.34.77-.32.24.79.64-.42.53-2,.4-2.12,1.26-2.08.39,1.21.71.54l.36-.94-.17.17a4,4,0,0,1,.44-2.39c.52-.79.61-.25.78-.58,0,0,.12-.08.25-.51l.95-2-.88.55c.14-1,.86-1.85-.14-1.21.76-.46,1.67-2.27,2.48-4.05a31.44,31.44,0,0,1,1.89-3.85,12.76,12.76,0,0,1,1.51-4.07c-.28.32-1,.27-.3-1,1,1,1.63-2.11,3-2.74-1,.66,1.58-3.73.07-2.66.6-1,.48.15,1.15-.53.71-2.79,3-5.46,4.38-8.67-.13-.13-.63.28-.54-.51l1.6-1.27c.23-.66-.63-1,.47-1.88-.21.09-.53.23-.38-.21a75.39,75.39,0,0,0,4.77-9.27,41.8,41.8,0,0,1,5.45-9c-.73.68-.48.11-.16-.54-.29.38-.38-.21-.64-.24l1.92-2.28c-.35-.78,1.38-2.79,1-3.36l-.32.87c-.1-1.44-2.25.76-3,.16.13,1.61-2.77,2.65-2.72,5.21-.4.35-.08-.52-.4-.38a3.26,3.26,0,0,1-.88,2.4l0-.17c-1.54,3.25-2.64,4.42-4.68,7.92l.56-.06a4.56,4.56,0,0,1-.94,1.16c.2,1.21,1.11-2.17,1.42-1-1.37.6-2.71,5.49-4,5.7-.59,1.2.66-.11.07,1.09l-.42.19.19.47c-.44.76-1,1-1.21.91a4.74,4.74,0,0,0,.28-.79c-.81.87-1.31,2.93-1.58,3.23l.73-1.07c-1.36,3.39-3.69,7.21-4.61,10.67l.32-.15c-.77,2.61-1.14,1.84-2.22,4.6V42.9a5.92,5.92,0,0,1-.65,2.11c.08-.79-1.06,1.05-.9,0-.84,2.83-.3,1.45-.36,3.55l-.52.25a3.67,3.67,0,0,1-.38,2.23c.23-1.23-.91.61-.72-.79-2.07,2.46-1.17,4.52-2.84,5.31.35,1.72,1.62-2.2,1.49-1.39.58-.47.22,1.39-.27,2.23s-1.88,1-2.88,3.26c.11-.22,0-.27.15-.49-.62.74-.42,1.81-1.28,2.68.3.84-.64,1.34,0,1.83l.77-2.15c-.34,1.26,0,2.75-1.27,4.5a4.18,4.18,0,0,1,.06-1.32c-.47.47-.35,1.16-.83,1.65-.65-.49,1-2.6,1-4.11-.58.47-.55,2.62-1,1.64.59,1.36-1.13,2.18-1.06,4.05l-.39-.29a4.46,4.46,0,0,1-.27,1.31l-.2-1.06c-.08,1.46-1.51,2.21-1.75,3.53,1.07-2.52.76-.34,1.55-1.26-.76,3.35-1.91,1.29-3.19,4.85.14-.5,1-1.65.91-.83A7.36,7.36,0,0,1,108.1,76c-.9,2.34.6-.16.45.94-.87.55-.27,1.22-.53,2.31l-.45-.18c-1.41,2.5.63,1.09-.73,3.31l-.19-1.26-.37,1.3-.4-.47A6.77,6.77,0,0,1,104.71,85c.44-.17.73.51.25,1.68-.6.68-.23-.62-.87,1.05a1.27,1.27,0,0,1,.42-1.59c-.11-.13-.12-.48-.23-.62A9.1,9.1,0,0,0,103,88.26a2.58,2.58,0,0,1,.38-.6c-.14.88-.26,1.77-.38,2.66-.32.31-.33,0-.34-.4a16.79,16.79,0,0,1-.34,1.66c-.29-.34-.68-.45-.43-1.53l-.54,2.46c-.22.09-.91,1-.93.64-.73,1.18-.57,3.41-1.54,5a1.46,1.46,0,0,1-.06.7c-.73,1.55-1.75,2.77-2,4.85l-1.09.8c-.45,1.53,1.41-1.11.66,1.43-.5,1.82-.82.42-1.25,1A6.21,6.21,0,0,1,94.08,111,10.26,10.26,0,0,1,94.56,109.57ZM87.8,128c0-.39,0-1.21.37-1.37C88.54,127.18,88.18,127.4,87.8,128Zm-9,28.37a1.55,1.55,0,0,1,.5-1.11A3.19,3.19,0,0,1,78.8,156.33Zm-21.09,80v0C58.1,235.53,57.95,235.8,57.7,236.34ZM57,238c0,.19.09.19.17.14a1.6,1.6,0,0,1,.16-1C57.22,237.25,57.07,237.45,57,238ZM120,61l-.25.26C119.89,60.52,119.91,60.77,120,61Z" transform="translate(0 -1.05)"/><path class="cls-1" d="M79.29,152.93a.44.44,0,0,1,.3-.07C79.56,152.69,79.47,152.66,79.29,152.93Z" transform="translate(0 -1.05)"/><path class="cls-1" d="M98.89,98.19l0-.05a.2.2,0,0,0-.06-.09Z" transform="translate(0 -1.05)"/><path class="cls-1" d="M60.44,210.72a1.82,1.82,0,0,1,.44-.6C60.77,210.07,60.62,210.2,60.44,210.72Z" transform="translate(0 -1.05)"/><path class="cls-1" d="M55.51,247.16l.16-1.12a2.41,2.41,0,0,1-.4.94C55.38,247,55.59,246.82,55.51,247.16Z" transform="translate(0 -1.05)"/><path class="cls-1" d="M50.2,255.86c0,.17-.08.34-.06.51h.23C50.52,255.7,50.47,255.19,50.2,255.86Z" transform="translate(0 -1.05)"/><path class="cls-1" d="M53.7,247.77c-.42,0-.46.7-.58,1.48a1,1,0,0,1,0-.13C53.65,249.48,53.67,248.62,53.7,247.77Z" transform="translate(0 -1.05)"/><path class="cls-1" d="M53.09,249.43a4.59,4.59,0,0,1-.17.71C53.11,250.28,53,249.86,53.09,249.43Z" transform="translate(0 -1.05)"/><path class="cls-1" d="M56.73,240.19c-.19.33.44.36.23.52C57.35,241.25,57,238.15,56.73,240.19Z" transform="translate(0 -1.05)"/><polygon class="cls-1" points="52.24 247.01 52.8 246.86 52.52 246.33 52.24 247.01"/><path class="cls-1" d="M54.14,242.13l-.45,1.18c.09,0,.09.17.08.37C54,242.93,54.29,242.14,54.14,242.13Z" transform="translate(0 -1.05)"/><path class="cls-1" d="M53.78,243.68a3.21,3.21,0,0,0-.17,1A7.28,7.28,0,0,0,53.78,243.68Z" transform="translate(0 -1.05)"/><polygon class="cls-1" points="52.52 245.3 52.72 244.97 52.98 244.12 52.52 245.3"/><path class="cls-1" d="M57.76,229.11l.22-1.36c-.13-.18-.33.15-.4.66C57.61,228.76,57.54,229.27,57.76,229.11Z" transform="translate(0 -1.05)"/><path class="cls-1" d="M55.33,232.75c.2-.33.31-.33.53-.48l-.59-.2Z" transform="translate(0 -1.05)"/><path class="cls-1" d="M56.26,228.85c-.13-.18.05-2.05-.37-.36C56,228.66,55.78,230,56.26,228.85Z" transform="translate(0 -1.05)"/><polygon class="cls-1" points="62.67 208.12 62.58 208.45 63.57 208.69 62.67 208.12"/><path class="cls-1" d="M65.63,191c-.72,1.48.48.56-.24,1.87.12.44.6-1.08.68-.64C66.11,191.21,66.4,190.76,65.63,191Z" transform="translate(0 -1.05)"/><path class="cls-1" d="M66.06,192.22a4.86,4.86,0,0,0,0,.52A2.15,2.15,0,0,0,66.06,192.22Z" transform="translate(0 -1.05)"/><polygon class="cls-1" points="148.24 2.88 148.9 2.05 148.29 2.49 148.24 2.88"/><path class="cls-1" d="M148.48,1.79l.69.08L148.93,1C148.85,1.27,148.69,1.7,148.48,1.79Z" transform="translate(0 -1.05)"/><path class="cls-1" d="M85.57,130.23l.12.13c.21-.09.31-.32.51-.77Z" transform="translate(0 -1.05)"/><polygon class="cls-1" points="91.09 116.06 90.99 116.28 91.7 116.07 91.09 116.06"/><path class="cls-1" d="M94.73,105.71c-.21.44-.3,1-.5,1.47C94.51,106.15,95.46,105.86,94.73,105.71Z" transform="translate(0 -1.05)"/><path class="cls-1" d="M190.34,322.12c0,.47.38.3.45.37C190.71,321.71,190.23,322.14,190.34,322.12Z" transform="translate(0 -1.05)"/><polygon class="cls-1" points="189.55 313.34 189.72 313.48 189.33 312.33 189.55 313.34"/><path class="cls-1" d="M189.72,307.15c-.73.66.06,2.62-.22,3.9l-.17.21.56.59A28,28,0,0,1,189.72,307.15Z" transform="translate(0 -1.05)"/><path class="cls-1" d="M191.34,303.36c-.28.23-.22-.84-.11.89a1.38,1.38,0,0,1,.07-.16C191.31,303.94,191.31,303.72,191.34,303.36Z" transform="translate(0 -1.05)"/><path class="cls-1" d="M191.31,304.09c0,.76.24-.49,0,0Z" transform="translate(0 -1.05)"/><path class="cls-1" d="M191.31,300.59l.19,1c.18-.2.27-1.09.37-.75C191.79,299.81,191.61,300,191.31,300.59Z" transform="translate(0 -1.05)"/><path class="cls-1" d="M190.84,299.61l.07.52C191,300,191,299.91,190.84,299.61Z" transform="translate(0 -1.05)"/><path class="cls-1" d="M191.07,301.24l-.16-1.11c-.12.14-.36.14,0,.51C190.76,300.55,191,300.77,191.07,301.24Z" transform="translate(0 -1.05)"/><path class="cls-1" d="M190.93,301.86c-.19.55-.33,1.27-.52.26C190.44,304,190.93,303.78,190.93,301.86Z" transform="translate(0 -1.05)"/><path class="cls-1" d="M189,306.76l-.23.75.23.66C188.88,307.84,189.21,306.72,189,306.76Z" transform="translate(0 -1.05)"/><path class="cls-1" d="M192.05,294.39c-.15-.07-.42.31-.62.38l.13.75C191.68,295.14,191.82,294.42,192.05,294.39Z" transform="translate(0 -1.05)"/><path class="cls-1" d="M191.43,294.76l-.19-1.12C191.14,294.63,191.26,294.82,191.43,294.76Z" transform="translate(0 -1.05)"/><polygon class="cls-1" points="190.06 298.35 190.5 300.19 190.08 298 190.06 298.35"/><polygon class="cls-1" points="192.32 289.13 192.63 289.78 192.17 288.63 192.32 289.13"/><path class="cls-1" d="M192.43,287.38c.26.48.53-.6.68-.1a6.78,6.78,0,0,0-.41-2A4.44,4.44,0,0,1,192.43,287.38Z" transform="translate(0 -1.05)"/><path class="cls-1" d="M192.43,284.25a7.65,7.65,0,0,0,.27,1A4,4,0,0,0,192.43,284.25Z" transform="translate(0 -1.05)"/><path class="cls-1" d="M191.42,291.77a1.24,1.24,0,0,0,.48-.84l-.45.41Z" transform="translate(0 -1.05)"/><path class="cls-1" d="M191.44,291.35h0l.08-.94Z" transform="translate(0 -1.05)"/><path class="cls-1" d="M191.41,291.88v-.11S191.36,291.83,191.41,291.88Z" transform="translate(0 -1.05)"/><path class="cls-1" d="M190.62,296.52c-.2-.66-.37-2-.82-.74C190.07,296.26,190.32,295.52,190.62,296.52Z" transform="translate(0 -1.05)"/><path class="cls-1" d="M190.85,292.38l-.17,1.17c.11,0,.29-.22.39.11Z" transform="translate(0 -1.05)"/><polygon class="cls-1" points="190.75 290.75 190.85 291.34 190.91 290.9 190.75 290.75"/><path class="cls-1" d="M191.91,286.23a5.72,5.72,0,0,1-.13-1.7,16.36,16.36,0,0,0-.25,2C191.66,286.64,191.88,286.95,191.91,286.23Z" transform="translate(0 -1.05)"/><path class="cls-1" d="M191.65,288.71l0-.11C191.59,288.66,191.57,288.72,191.65,288.71Z" transform="translate(0 -1.05)"/><polygon class="cls-1" points="192.33 277.32 192.24 277.42 192.31 277.44 192.33 277.32"/><path class="cls-1" d="M191.45,286.64a1.71,1.71,0,0,0,.09,1.1,11.49,11.49,0,0,1,0-1.21C191.48,286.49,191.44,286.48,191.45,286.64Z" transform="translate(0 -1.05)"/><path class="cls-1" d="M192.35,282.52a5.59,5.59,0,0,0-.3.85C192.19,283.12,192.45,282.62,192.35,282.52Z" transform="translate(0 -1.05)"/><path class="cls-1" d="M191.76,288.43v.08C191.87,288.35,191.83,288.37,191.76,288.43Z" transform="translate(0 -1.05)"/><path class="cls-1" d="M191.76,288.43a3.5,3.5,0,0,0-.22-.69,6.21,6.21,0,0,0,.09.85A.72.72,0,0,1,191.76,288.43Z" transform="translate(0 -1.05)"/><path class="cls-1" d="M189.78,276.26c.39.13.62,1.49.08,2.6.18,1.15,1.56.53,2.38-.39-.17-.05-.33-.06-.45-1.24-.26.39-.76,2.53-1,1.52-.05-1.55.26-1.25.55-2-.55.59-.52-2-1.28-1.75l.12,1.37C190.05,276.4,189.92,275.89,189.78,276.26Z" transform="translate(0 -1.05)"/><path class="cls-1" d="M192,280.66v.48a5.76,5.76,0,0,1,.7-1.6c-.11-.81-.25-1-.37-1.05l-.29,2.34Z" transform="translate(0 -1.05)"/><path class="cls-1" d="M191.79,283.28c-.42-.41-.47-1.56-1-.9-.09,1.4.29,1,.42,1.86,0-2.27.2.67.54-.95a10.37,10.37,0,0,1,0,1.23c.08-.4.16-.79.27-1.15l0,0h0c-.06.09-.09.12-.06,0a.17.17,0,0,1,0,0,.42.42,0,0,1-.16-.11c.13-.65.12-.09.16.11l.06,0h0c0-.76,0-1.52,0-2.28A11.71,11.71,0,0,0,191.79,283.28Z" transform="translate(0 -1.05)"/><path class="cls-1" d="M189,294.52c0-.07.07-.06.1-.07S189,294.24,189,294.52Z" transform="translate(0 -1.05)"/><path class="cls-1" d="M189.27,293.6a1.27,1.27,0,0,1,.14.85c-.16.46-.21,0-.35,0,.09.33.24,1.15.51.15l0-.16c.2-.91.81-2,.86-1.88A3.23,3.23,0,0,0,189.27,293.6Z" transform="translate(0 -1.05)"/><path class="cls-1" d="M190.43,288.36l-.1-1.9-.43.94.23,0C190,288.42,190.26,288.21,190.43,288.36Z" transform="translate(0 -1.05)"/><polygon class="cls-1" points="192.56 277.13 192.99 277.42 192.46 276.27 192.56 277.13"/><polygon class="cls-1" points="192.75 274.68 193.13 274.81 192.96 274.14 192.75 274.68"/><path class="cls-1" d="M218.76,139.44l.09-.56A3.2,3.2,0,0,0,218.76,139.44Z" transform="translate(0 -1.05)"/><path class="cls-1" d="M217.31,143.22l.15.16C217.42,143.17,217.38,143.07,217.31,143.22Z" transform="translate(0 -1.05)"/><path class="cls-1" d="M201.71,216.19c.53-.71,1.28-1.48.82-1.47l-.48.15A3.46,3.46,0,0,1,201.71,216.19Z" transform="translate(0 -1.05)"/><path class="cls-1" d="M209.27,175.45l-.19.19.24.64Z" transform="translate(0 -1.05)"/><path class="cls-1" d="M207.7,174.39l.57-1A5.67,5.67,0,0,0,207.7,174.39Z" transform="translate(0 -1.05)"/><path class="cls-1" d="M226.43,118.66l-.16-.77C225.88,118.83,226.26,118.5,226.43,118.66Z" transform="translate(0 -1.05)"/><path class="cls-1" d="M195.52,250.76a8.84,8.84,0,0,0,.49-1.69C195.65,249.87,195.19,250.49,195.52,250.76Z" transform="translate(0 -1.05)"/><path class="cls-1" d="M222.52,142.51c0-.35,0-.51-.08-.54C222.39,142.33,222.4,142.54,222.52,142.51Z" transform="translate(0 -1.05)"/><path class="cls-1" d="M196.28,247.08c-.06.12-.1.23-.15.35a8.45,8.45,0,0,1-.12,1.64A2.86,2.86,0,0,0,196.28,247.08Z" transform="translate(0 -1.05)"/><path class="cls-1" d="M263.1,47.29s.09-.1.14-.13S263.15,47.18,263.1,47.29Z" transform="translate(0 -1.05)"/><path class="cls-1" d="M279.32,30c-.1.21-.31.52-.5.81A3.62,3.62,0,0,0,279.32,30Z" transform="translate(0 -1.05)"/><path class="cls-1" d="M193.9,265.93c0,.52,0,.09,0,0Z" transform="translate(0 -1.05)"/><path class="cls-1" d="M191.95,268.26c0-.12-.09-.21-.19-.23A.38.38,0,0,1,191.95,268.26Z" transform="translate(0 -1.05)"/><path class="cls-1" d="M194.38,241.53v0C194.28,241.62,194.3,241.6,194.38,241.53Z" transform="translate(0 -1.05)"/><path class="cls-1" d="M193.63,266.68a4.88,4.88,0,0,0,.19-.65A5,5,0,0,0,193.63,266.68Z" transform="translate(0 -1.05)"/><path class="cls-1" d="M193.84,266.6l-.09.45C193.82,267.12,193.87,267.07,193.84,266.6Z" transform="translate(0 -1.05)"/><path class="cls-1" d="M193.95,265.2a6,6,0,0,1-.13.83c0-.1.07-.14.08-.11Z" transform="translate(0 -1.05)"/><path class="cls-1" d="M243.31,85.44l.09-.08C243.48,84.81,243.4,85,243.31,85.44Z" transform="translate(0 -1.05)"/><path class="cls-1" d="M200.22,201.92s0,0,0,.06l0-.07Z" transform="translate(0 -1.05)"/><path class="cls-1" d="M200.37,200a2.06,2.06,0,0,1-.11,1.89l1.37-.31Z" transform="translate(0 -1.05)"/><path class="cls-1" d="M222.05,130.3l-.83,1.1c0-1.73.58-2.74-.37-1.77,1.2.67-1.68,4.88-.48,5.54l-.57.72c.1-.23,0-.3.14-.52-1.21,1.36.48,1.53-.47,3.51-.36.68-.74,1.11-.71.56l-.28,1.71c-.2.45-.38.26-.18-.19l-.81,2.46,0,0a12.3,12.3,0,0,1,.08,1.74c-.41.55,0-.36-.24-.26l-.19,1.45c-.54.43-.44-.8,0-1.71-1.74.8-.13,1.22-1.78,3.7l.27-1.34c-1,.57-1.07,1.67-2,3,.35-.27,2.11-2.52,1.94-.93a3.29,3.29,0,0,0-.47,1.8c-.46-.15-.61.67-.9,1.65l-.58-.27c-.18,1.11.16,1.13.23,1.85a1.86,1.86,0,0,1-1.49,1.38c-.72,1.85,1.19-1,.56,1.22a12.82,12.82,0,0,0-1.13,4.65c-.57,1-.31-.31-.61,0l.16,1.12c-.09.23-.21.11-.28,0-.08.88.59.26.33,1.6.28.28-.2.86-.68,1.6a3.93,3.93,0,0,0-.84,2.58c-.29.34-.32-.31-.59-.26a18.67,18.67,0,0,0,0,4l-.85,1.42c.79-1,.91.61,1,2,.34-.34.63-.62.79-.82l-.26,2.11c-.17.21-.32,0-.48-.45,0,.15,0,.3,0,.41-.44.65-.68.18-.88-.44l.59-.62c-.23-.61-.5-1.2-.89-1.2a2.25,2.25,0,0,1,0,.71c-.06-.16-.13-.27-.21-.23s0,.3,0,.68l-.82.26.24.19-1.2,2.52c.15,2.1.64,4,.11,7.1-.31-.89-.78-.39-1.37-.59.83-.66.4-2.4,1-3.93-.3.79-.54.54-.58.3l-.24,2.94c-.48-.2-.52.49-.91,1.17,1.11-.29.12,2.26.12,3.48-.34,0-.61-.38-.18-1.75-1.12,1.35.64,2.29-.36,3.63.08-.34.17-.51,0-.69.09.87-.63,2.75-.8,2.22l.08-.34c-.69,2.23-1.74,6.87-1,7.41a4.07,4.07,0,0,1-1.05-.71l1.77,4.69c-.62-.52-2.66.44-2.59-1.52a5,5,0,0,0-.54,2.35c.18-.35,1.23-.68,1.18-.16a12,12,0,0,0-1.67,2.42c.27-.52,1.26.35,1,1.22-.14-.17-1.12-.18-1.17-.52l.63,2.43c-.08-.59-.91-.3-1.32.12.26-.18-.42,1.88-.44,2.49l.45-.87c-.69,2.43,1,2.76.45,5.19a.88.88,0,0,0-1.65.19c.44.69,2.18,3.08,2.15,5.31l-.41.35c0,.57,0,1.15,0,1.72a31.48,31.48,0,0,1-2.17-6.16c-.45.87-.44.18-.7,1.57-.41.43-.3-.85-.23-1.26l-.88,3.18c.68,0,.14,2.59.74,2.58,0-1.22,0-2.42,0-3.63.71,0,1.38,2.38.9,4.65-.36.53-1.1-.66-1.33-.66a5.27,5.27,0,0,1-.14,2.44l-.18-1c-.47,1.23.51,2.25-.39,3.67-.13.52-1.13,1.43-.75,1.59.91-.73,3.27-.47,3.74.2a23.84,23.84,0,0,1-1.68,3.18c-.74.77-1.18-1.55-1.82-.9.18.06.31.58.35.8-.25.53-.52-.33-.65.9.64.32-.49,2.45.47.67,0,1.21-.36,1.23-.57,2.62.51-.37,1.26,1.49,1.25,2.7-.16-.1-.43.13-.55.24-.51,2.4-.92,3.67-1.26,5.93-.19.18-.54,1.25-.77.74a3.16,3.16,0,0,1,.18,1.38c-.77,1.27.12-1.57-.72-.64.38.15.29,1.89.4,2.92.65-.22.43-2.28.32-3.32.84.12,1.47,2,1.54,4.39,0,1.91-.65.74-.58,1.08-.63,3.51,1.05,3.19,0,6-.69,1.1-1.07-.08-1.49.13,0-1.56.66-2.31.78-3.35l-.43,1.25a4.36,4.36,0,0,1,.12-2.09,14,14,0,0,0-.78,3.66c-.25,1.71-.54,3.64-.87,5,.13.51.23,1.37.49,1v-.87c.51-.75.44,1.7.74.62a9.56,9.56,0,0,1,.13,4.15l-.64.24c.18,0,.47-1,.33-1.51.2.71-1.07,2.42-.35,3.25l.53-1.1c.19,1.2.7,2.7.36,4.12.67-.6,0-.34.77-1.3-1,.8.4-3.69-.66-2.35.92-1,.53-1.79,1.36-3.09-.21,0-.43.45-.21-.76a1.26,1.26,0,0,1-.15-.29l0-.08,0,.06c0-.06,0-.06,0,0a1.43,1.43,0,0,1-.37.58c-.4-.65-.2-2.58-.37-3.26.17-.71.2.33.45,0l-.26-1c.46,0,1-1.82,1-.1l.23-1.52a6.61,6.61,0,0,0,.55-2.86c.19-.7-.25-1.87,0-1.2l0-2.42H195c.38-2.34-.08-4.94,1.09-7.51a11,11,0,0,1,.28-2.95l.42-.2c0-1,.9-3,.57-3.47,1.22-.92,1.08-4.86,1.57-6.6l-.49-.15a25.42,25.42,0,0,0,.37-4h-.46c-.13-1.38.9-3.31,1.22-5.39.14.17,0,.69-.16,1a7.81,7.81,0,0,0,.85-3.78,7.92,7.92,0,0,1,.67-3.64,2.32,2.32,0,0,1,.29-1.34.45.45,0,0,0,0,.14c0-.06,0-.14.05-.23s.27-.46.4-.72a3.33,3.33,0,0,0-.37.6,12.65,12.65,0,0,0,.19-1.75l.53-.17,0-.15c.31-.59-.12-.55-.54-.29a4.21,4.21,0,0,0-.1-.9c.87-.34.1-1.73,1.06-2.24-.3-.52.39-3.26-.37-3.79.11,0,.2-.17.14.17a4.43,4.43,0,0,0,.39-2.07l.66-.16c-.16-.58-.31-1.16-.44-1.73.6-.85.91-1.19,1.13-.15-.14-2.4.19-1.88,0-4l.36.19c.16-.68-.08-1.9.34-2.23,1.11-1.34,2-7.51,3.67-11.24-1.33.45,1-1.67.17-2.06.33-.15.64-.65.69,0,.32-2,1.29-2.84,1-4.41.33-.15.27.53.48.38,0-.17,0-.69.17-.85s.14.35.16.7c.54-2-.21-2.46-.94-2.83a2.21,2.21,0,0,0,.47-2.33c.35-.28.79-.8.51.48.24-.7,1.63-4.2,1-4.45a2.15,2.15,0,0,0,.32-1.18c.5-1.57.6-1.69,1-3.27l-.23.4c-.57-.85.24-1.34.56-2.6l.06.06c1.48-2.67.16-1.31,1.69-3.92H215c-.89-.58,1.41-2.29,1.57-4l-.46.5c0-1,2.16-2,2.58-2.88.15-.17,0,.35,0,.64,1.35-2.13-.49-.5-.05-2.29.43-.21.68.69,1.13-.46.47-.48.06-3.76,1.27-5.12-.38.26-.75.52-.64-.35.37-1.26,2.17-3,1.81-4.35.13-.13.21-.17.27-.15.15-1,.81-3.16.6-3.88,1.87-.28,1.43-6.1,2.84-5.53l1-2.9.12.13a5.55,5.55,0,0,0,.68-3.33c.27-.38.28,0,.34,0a9.54,9.54,0,0,0,1.66-5.32l.55,0c0-.71,2.31-3.52,2.86-6.34a.45.45,0,0,1,.09.37,17.47,17.47,0,0,1,2.21-4.61c.86-1.41,1.48-2.66.9-3.55l.47-2.08c-1.26,2.4-.54-.69-1.28.2.35-1,1.65-2.27,1.19-1l-.17.15c.65.83,1.71-2.91,2.26-2.58,2.19-4.84,4.78-9.34,7.14-13.72l-.91.18.83-1.53c.36-.33.79-.29.2.8.67-.39.63-2,.51-2.11,1.36-2,.33,1.23.69.57l.41-.92-.18.16a4.09,4.09,0,0,1,.56-2.38c.56-.77.62-.22.81-.54,0,0,.12-.07.28-.5l1-1.92-.91.51c.19-1,1-1.82-.08-1.22.78-.43,1.79-2.2,2.68-4A31.23,31.23,0,0,1,254,71.38a12.92,12.92,0,0,1,1.8-4c-.31.3-1,.2-.23-1,.92,1.11,1.79-2,3.19-2.55-1.06.59,1.84-3.63.27-2.66.68-1,.47.19,1.19-.45.89-2.77,3.44-5.24,5.11-8.33-.12-.14-.66.23-.49-.55l1.72-1.13c.29-.64-.54-1.07.64-1.84-.22.08-.55.19-.35-.24a82.83,82.83,0,0,0,5.64-8.85,42.35,42.35,0,0,1,6.45-8.41c-.81.6-.49.06-.1-.55-.33.35-.36-.25-.6-.31l2.17-2.07c-.25-.82,1.69-2.64,1.34-3.25l-.42.84c.07-1.45-2.32.51-3-.18-.06,1.63-3.06,2.35-3.31,4.93-.44.31,0-.53-.35-.43a3.32,3.32,0,0,1-1.16,2.31v-.18c-1.9,3.1-3.17,4.13-5.56,7.45h.56a4.62,4.62,0,0,1-1,1.08c.09,1.24,1.31-2.08,1.51-.88-1.42.48-3.22,5.27-4.56,5.37-.71,1.15.67-.05,0,1.1l-.44.15.15.49c-.51.72-1.06.91-1.29.81a4.84,4.84,0,0,0,.36-.77c-.9.8-1.58,2.83-1.88,3.11l.83-1c-.84,1.65-1.93,3.38-3,5.12a29.18,29.18,0,0,0-2.57,5.24l.33-.12c-1,2.58-1.27,1.78-2.56,4.48V64a6,6,0,0,1-.8,2.08c.14-.78-1.13,1-.91,0-1,2.79-.4,1.44-.62,3.54l-.54.21a3.71,3.71,0,0,1-.54,2.22c.31-1.22-1,.56-.66-.83-2.27,2.33-1.45,4.48-3.17,5.2.26,1.76,1.73-2.14,1.56-1.33.6-.44.14,1.41-.39,2.24s-1.93.9-3.06,3.15c.12-.22.06-.27.17-.49-.66.72-.52,1.8-1.42,2.64.26.86-.71,1.32-.09,1.84l.88-2.13c-.41,1.26-.13,2.76-1.51,4.48a4.22,4.22,0,0,1,.13-1.33c-.49.46-.41,1.15-.92,1.62-.63-.52,1.11-2.57,1.21-4.09-.61.45-.69,2.62-1.14,1.61.52,1.39-1.25,2.15-1.27,4l-.37-.31a4.53,4.53,0,0,1-.34,1.31l-.15-1.07c-.15,1.46-1.63,2.16-1.91,3.5,1.16-2.52.77-.32,1.59-1.22-.89,3.36-1.95,1.24-3.36,4.81.16-.5,1.07-1.64.93-.81a7.49,7.49,0,0,1-1.37,1.71c-1,2.34.61-.15.42,1-.89.54-.31,1.23-.61,2.31l-.44-.2c-1.49,2.49.59,1.12-.84,3.31l-.15-1.27-.41,1.3-.38-.48a6.91,6.91,0,0,1-1.28,3.13c.45-.17.72.53.2,1.69-.63.67-.21-.63-.91,1a1.29,1.29,0,0,1,.47-1.59c-.11-.14-.11-.49-.21-.63a9.31,9.31,0,0,0-1.33,2.71,2.64,2.64,0,0,1,.4-.6c-.18.88-.29,1.78-.43,2.68-.33.31-.33-.05-.34-.41-.16.51-.1.94-.36,1.68-.28-.34-.67-.46-.41-1.56l-.57,2.48c-.22.09-.93,1-.93.64-.75,1.19-.61,3.44-1.6,5a1.49,1.49,0,0,1-.07.71c-.75,1.56-1.79,2.79-2.08,4.89l-1.1.81c-.47,1.54,1.43-1.12.64,1.44-.52,1.83-.83.43-1.26,1a6.36,6.36,0,0,1-1,4.23A10.49,10.49,0,0,1,222.05,130.3ZM215.49,149c0-.4,0-1.23.33-1.4C216.21,148.18,215.85,148.41,215.49,149Zm-7.93,29a1.58,1.58,0,0,1,.44-1.14A3.25,3.25,0,0,1,207.56,178Zm-13.38,82.24,0,0C194.47,259.36,194.35,259.65,194.18,260.22Zm-.45,1.72c0,.18.11.18.19.11a1.62,1.62,0,0,1,0-1C193.82,261.19,193.7,261.4,193.74,261.94Zm55-180-.27.25C248.7,81.43,248.71,81.68,248.74,81.94Z" transform="translate(0 -1.05)"/><path class="cls-1" d="M207.88,174.53a.43.43,0,0,1,.3-.08C208.14,174.28,208.06,174.25,207.88,174.53Z" transform="translate(0 -1.05)"/><path class="cls-1" d="M226.46,118.8l0-.05a.2.2,0,0,0-.06-.09Z" transform="translate(0 -1.05)"/><path class="cls-1" d="M193.72,234.26a1.85,1.85,0,0,1,.37-.65C194,233.56,193.85,233.71,193.72,234.26Z" transform="translate(0 -1.05)"/><path class="cls-1" d="M193.59,271.31v-1.13a2.44,2.44,0,0,1-.26,1C193.44,271.15,193.62,271,193.59,271.31Z" transform="translate(0 -1.05)"/><path class="cls-1" d="M189.66,280.79c0,.17,0,.35,0,.52l.23,0C190,280.58,189.83,280.07,189.66,280.79Z" transform="translate(0 -1.05)"/><path class="cls-1" d="M191.9,272.18c-.41,0-.34.77-.35,1.56a1,1,0,0,1,0-.14C192.1,273.9,192,273,191.9,272.18Z" transform="translate(0 -1.05)"/><path class="cls-1" d="M191.54,273.93a4.65,4.65,0,0,1-.06.73C191.7,274.78,191.56,274.37,191.54,273.93Z" transform="translate(0 -1.05)"/><path class="cls-1" d="M193.74,264.19c-.14.36.49.29.31.49C194.52,265.15,193.67,262.12,193.74,264.19Z" transform="translate(0 -1.05)"/><polygon class="cls-1" points="190.5 271.64 191.03 271.41 190.67 270.93 190.5 271.64"/><path class="cls-1" d="M191.48,266.5l-.26,1.25c.09,0,.12.16.14.36C191.45,267.32,191.63,266.48,191.48,266.5Z" transform="translate(0 -1.05)"/><path class="cls-1" d="M191.36,268.1a3.27,3.27,0,0,0,0,1A7.4,7.4,0,0,0,191.36,268.1Z" transform="translate(0 -1.05)"/><polygon class="cls-1" points="190.52 269.9 190.66 269.54 190.79 268.65 190.52 269.9"/><path class="cls-1" d="M193.29,253l0-1.39c-.15-.16-.31.2-.31.72C193.1,252.67,193.09,253.18,193.29,253Z" transform="translate(0 -1.05)"/><path class="cls-1" d="M191.36,257c.15-.36.27-.37.46-.56l-.61-.12Z" transform="translate(0 -1.05)"/><path class="cls-1" d="M191.76,252.94c-.15-.16-.22-2.06-.42-.31C191.5,252.79,191.45,254.18,191.76,252.94Z" transform="translate(0 -1.05)"/><polygon class="cls-1" points="195.77 231.39 195.71 231.74 196.72 231.87 195.77 231.39"/><path class="cls-1" d="M196.89,213.88c-.58,1.56.53.51-.08,1.91.15.43.5-1.14.62-.71C197.4,214.06,197.65,213.58,196.89,213.88Z" transform="translate(0 -1.05)"/><path class="cls-1" d="M197.44,215.08a4.94,4.94,0,0,0,0,.53A2.19,2.19,0,0,0,197.44,215.08Z" transform="translate(0 -1.05)"/><polygon class="cls-1" points="281.89 26.06 282.65 25.31 281.99 25.68 281.89 26.06"/><path class="cls-1" d="M282.38,25l.67.16-.14-.86C282.81,24.52,282.61,24.93,282.38,25Z" transform="translate(0 -1.05)"/><path class="cls-1" d="M213.33,151.35l.12.13c.21-.1.3-.33.48-.8Z" transform="translate(0 -1.05)"/><polygon class="cls-1" points="218.63 136.92 218.53 137.15 219.25 136.92 218.63 136.92"/><path class="cls-1" d="M222.2,126.39c-.22.44-.3,1-.5,1.49C222,126.83,222.93,126.54,222.2,126.39Z" transform="translate(0 -1.05)"/><path class="cls-1" d="M460.48,114.21c.68,0,.39-.43.48-.51C459.84,113.91,460.52,114.31,460.48,114.21Z" transform="translate(0 -1.05)"/><polygon class="cls-1" points="449.4 115.33 449.58 115.14 447.98 115.74 449.4 115.33"/><path class="cls-1" d="M438.94,117.51c1.07.61,3.78-.53,5.67-.48l.32.13.78-.66A57.9,57.9,0,0,1,438.94,117.51Z" transform="translate(0 -1.05)"/><path class="cls-1" d="M433.2,116.55c.37.24-1.18.36,1.31,0l-.24,0C434,116.48,433.73,116.51,433.2,116.55Z" transform="translate(0 -1.05)"/><path class="cls-1" d="M434.27,116.46c1.1-.13-.75-.16,0,0Z" transform="translate(0 -1.05)"/><path class="cls-1" d="M429.19,117.13l1.43-.4c-.32-.13-1.62,0-1.15-.2C428,116.82,428.32,117,429.19,117.13Z" transform="translate(0 -1.05)"/><path class="cls-1" d="M427.87,117.79l.74-.18C428.47,117.56,428.27,117.55,427.87,117.79Z" transform="translate(0 -1.05)"/><path class="cls-1" d="M430.19,117.23l-1.57.38c.22.09.27.32.72-.15C429.23,117.68,429.52,117.45,430.19,117.23Z" transform="translate(0 -1.05)"/><path class="cls-1" d="M431.1,117.24c.83.07,1.89.06.46.46C434.33,117.32,433.87,116.86,431.1,117.24Z" transform="translate(0 -1.05)"/><path class="cls-1" d="M438.48,118.3l1.11.1.92-.34C440.05,118.23,438.39,118.09,438.48,118.3Z" transform="translate(0 -1.05)"/><path class="cls-1" d="M420.12,117.69c-.08.16.53.35.66.54l1.05-.28C421.26,117.9,420.21,117.91,420.12,117.69Z" transform="translate(0 -1.05)"/><path class="cls-1" d="M420.77,118.23l-1.58.42C420.63,118.53,420.88,118.38,420.77,118.23Z" transform="translate(0 -1.05)"/><polygon class="cls-1" points="427.69 117.56 430.27 116.75 427.19 117.62 427.69 117.56"/><polygon class="cls-1" points="413.99 117.23 414.86 116.79 413.29 117.47 413.99 117.23"/><path class="cls-1" d="M409.92,118.72c.65-.35-1-.4-.28-.65a13.5,13.5,0,0,0-2.85.8A9.37,9.37,0,0,1,409.92,118.72Z" transform="translate(0 -1.05)"/><path class="cls-1" d="M405.41,119.34c.44-.11.9-.28,1.4-.46A7.61,7.61,0,0,0,405.41,119.34Z" transform="translate(0 -1.05)"/><path class="cls-1" d="M416.45,118.85a2.12,2.12,0,0,0-1.31-.31l.67.37Z" transform="translate(0 -1.05)"/><path class="cls-1" d="M415.84,118.91h0l-1.37.11Z" transform="translate(0 -1.05)"/><path class="cls-1" d="M416.61,118.83h-.16C416.52,118.88,416.55,118.89,416.61,118.83Z" transform="translate(0 -1.05)"/><path class="cls-1" d="M423.45,118.65c-.92.33-2.86.79-.92,1C423.17,119.25,422.06,119.16,423.45,118.65Z" transform="translate(0 -1.05)"/><path class="cls-1" d="M417.45,119.29l1.71-.08c0-.11-.37-.24.09-.41Z" transform="translate(0 -1.05)"/><polygon class="cls-1" points="416.63 118.46 417.45 118.25 416.81 118.27 416.63 118.46"/><path class="cls-1" d="M408.37,119.46a11.88,11.88,0,0,1-2.43.46c1,0,2-.06,3-.15C409,119.62,409.41,119.34,408.37,119.46Z" transform="translate(0 -1.05)"/><path class="cls-1" d="M412,119.23l-.16,0C411.95,119.3,412,119.3,412,119.23Z" transform="translate(0 -1.05)"/><path class="cls-1" d="M397,120.77l.15.06,0-.08Z" transform="translate(0 -1.05)"/><path class="cls-1" d="M409.06,119.83a3.5,3.5,0,0,0,1.57-.3c-.54.1-1.12.18-1.75.24C408.84,119.83,408.83,119.88,409.06,119.83Z" transform="translate(0 -1.05)"/><path class="cls-1" d="M402.93,119.77c.39.05.83.09,1.29.11C403.83,119.79,403.05,119.65,402.93,119.77Z" transform="translate(0 -1.05)"/><path class="cls-1" d="M411.58,119.18l.11,0C411.44,119.08,411.48,119.12,411.58,119.18Z" transform="translate(0 -1.05)"/><path class="cls-1" d="M411.58,119.18a6.58,6.58,0,0,0-.95.35c.44-.08.85-.16,1.21-.26A1.17,1.17,0,0,1,411.58,119.18Z" transform="translate(0 -1.05)"/><path class="cls-1" d="M394.51,123.75c.09-.4,2-.94,3.69-.68,1.61-.45.42-1.65-1.08-2.24,0,.18,0,.34-1.68.73.61.17,3.79.15,2.4.64-2.21.42-1.84,0-2.95-.08,1,.41-2.78,1-2.23,1.65l1.94-.43C394.65,123.45,394,123.7,394.51,123.75Z" transform="translate(0 -1.05)"/><path class="cls-1" d="M400.34,120.57l.69-.12a11.18,11.18,0,0,1-2.45-.31c-1.14.3-1.36.47-1.43.61l3.42-.27Z" transform="translate(0 -1.05)"/><path class="cls-1" d="M404.14,120.16c-.5.48-2.15.82-1.09,1.19,2-.22,1.39-.49,2.59-.8-3.27.42.92-.33-1.48-.35.64-.13,1.22-.21,1.76-.28-.6,0-1.17,0-1.72,0l.08,0h0c.15,0,.2.07,0,.05l-.07,0a.43.43,0,0,1-.13.18c-1,0-.16-.1.13-.18,0,0,0,0,0-.07h0l-3.27.55A28.71,28.71,0,0,0,404.14,120.16Z" transform="translate(0 -1.05)"/><path class="cls-1" d="M420.86,120.71c-.11,0-.1-.06-.12-.09C420.54,120.7,420.46,120.74,420.86,120.71Z" transform="translate(0 -1.05)"/><path class="cls-1" d="M419.49,120.59a2.52,2.52,0,0,1,1.2-.31c.69.06,0,.21.07.34.46-.16,1.61-.48.12-.53l-.23.08a7.6,7.6,0,0,1-2.87-.46A4.39,4.39,0,0,0,419.49,120.59Z" transform="translate(0 -1.05)"/><path class="cls-1" d="M411.73,120.5,409,121l1.43.24-.09-.22C411.91,120.93,411.55,120.69,411.73,120.5Z" transform="translate(0 -1.05)"/><polygon class="cls-1" points="396.64 119.54 396.96 119.05 395.44 119.84 396.64 119.54"/><polygon class="cls-1" points="393.08 119.92 393.18 119.51 392.26 119.83 393.08 119.92"/><path class="cls-1" d="M191.8,137.54l-.81.13A6.5,6.5,0,0,0,191.8,137.54Z" transform="translate(0 -1.05)"/><path class="cls-1" d="M197.66,137.42l.14-.2C197.53,137.34,197.42,137.42,197.66,137.42Z" transform="translate(0 -1.05)"/><path class="cls-1" d="M305.52,127.7c-1.2-.3-2.55-.79-2.38-.36l.39.41A7.29,7.29,0,0,1,305.52,127.7Z" transform="translate(0 -1.05)"/><path class="cls-1" d="M245.57,133.44l.35.12.78-.45Z" transform="translate(0 -1.05)"/><path class="cls-1" d="M244.82,135.27l-1.57-.21A10.59,10.59,0,0,0,244.82,135.27Z" transform="translate(0 -1.05)"/><path class="cls-1" d="M159.79,138.65l-.94.46C160.33,139.08,159.68,138.87,159.79,138.65Z" transform="translate(0 -1.05)"/><path class="cls-1" d="M356.6,124.21a18.48,18.48,0,0,0-2.55-.06C355.3,124.31,356.31,124.6,356.6,124.21Z" transform="translate(0 -1.05)"/><path class="cls-1" d="M194,132.88c-.49.09-.7.18-.68.28C193.8,133.07,194.09,133,194,132.88Z" transform="translate(0 -1.05)"/><path class="cls-1" d="M351.13,124.39l.54.06a19.16,19.16,0,0,1,2.38-.29A6.11,6.11,0,0,0,351.13,124.39Z" transform="translate(0 -1.05)"/><path class="cls-1" d="M43.8,139.18l-.26,0C43.51,139.2,43.63,139.2,43.8,139.18Z" transform="translate(0 -1.05)"/><path class="cls-1" d="M9.8,136.91c.33-.06.87-.11,1.38-.16A7.72,7.72,0,0,0,9.8,136.91Z" transform="translate(0 -1.05)"/><path class="cls-1" d="M378.74,122c.75-.09.12-.06,0,0Z" transform="translate(0 -1.05)"/><path class="cls-1" d="M382.56,123.42c-.16.06-.27.14-.28.24A.5.5,0,0,1,382.56,123.42Z" transform="translate(0 -1.05)"/><path class="cls-1" d="M343.8,127.63h-.07C344,127.71,343.92,127.69,343.8,127.63Z" transform="translate(0 -1.05)"/><path class="cls-1" d="M379.89,122.13c-.29,0-.62,0-1,0C379.07,122.11,379.37,122.12,379.89,122.13Z" transform="translate(0 -1.05)"/><path class="cls-1" d="M379.72,121.94l.66,0C380.47,121.84,380.38,121.81,379.72,121.94Z" transform="translate(0 -1.05)"/><path class="cls-1" d="M377.69,122.15c.43,0,.84-.06,1.23-.06-.15,0-.22,0-.18-.05Z" transform="translate(0 -1.05)"/><path class="cls-1" d="M105.88,137.48l-.16,0C105,137.62,105.29,137.59,105.88,137.48Z" transform="translate(0 -1.05)"/><path class="cls-1" d="M286.07,133.37l.09,0H286Z" transform="translate(0 -1.05)"/><path class="cls-1" d="M283.37,133.83a4.12,4.12,0,0,1,2.68-.5l-1-1.2Z" transform="translate(0 -1.05)"/><path class="cls-1" d="M177.76,138l1.92.35c-2.3.7-4,.5-2.17,1,.24-1.35,7.45-.32,7.68-1.68l1.27.25c-.36,0-.42.08-.78.07,2.47.59,1.8-1,5-.91,1.1.08,1.88.26,1.13.43l2.45-.4c.72,0,.55.25-.17.24l3.74-.2,0,0a23.12,23.12,0,0,1,2.32-.74c1,.17-.47.16-.23.32l2.06-.39c.85.32-.85.72-2.29.71,2,1.3,1.71-.39,5.92.27l-2,.23c1.29.73,2.81.4,5,.81-.53-.23-4.47-1.07-2.23-1.48a6.78,6.78,0,0,0,2.68-.21c0,.48,1.21.33,2.69.25l-.08.64c1.6-.24,1.46-.56,2.4-.87,1.79,0,2.18.49,2.61.89,2.87,0-2-.73,1.38-1a25.57,25.57,0,0,0,6.89-.64c1.67.16-.28.4.33.56l1.46-.57c.36,0,.25.16.19.24,1.24-.25.08-.64,2-.89.5-.72,4.06.87,6.45,0,.6.16-.27.4-.08.64a36.67,36.67,0,0,0,5.53-1.3l2.34.33c-1.73-.42.43-1.06,2.32-1.62-.62-.2-1.14-.38-1.49-.46l3-.48c.37.09.08.32-.41.61l.55-.18c1.1.19.55.58-.21,1l-1.11-.34c-.74.42-1.42.88-1.25,1.25a4.47,4.47,0,0,1,1-.22c-.19.11-.31.21-.22.27s.42-.09.91-.28l.72.68.16-.29,4,.26c2.82-.85,5.26-2,9.77-2.52-1.1.57-.2.86-.23,1.49-1.27-.6-3.49.44-5.85.41,1.23,0,1,.32.67.44l4.16-.79c-.07.51.91.34,2,.5-.87-1,3.09-.8,4.78-1.2.12.33-.27.7-2.35.71,2.33.65,2.9-1.33,5.19-.8-.51,0-.78,0-1,.18,1.17-.36,4.08-.28,3.41.05l-.51,0c3.37-.06,10.25-.53,10.71-1.41a3.43,3.43,0,0,1-.58,1.23l5.85-3.17c-.49.76,1.64,2.39-1.13,2.95a10.77,10.77,0,0,0,3.48-.23c-.55-.07-1.42-1-.68-1.08a22.75,22.75,0,0,0,4,.89c-.83-.11,0-1.31,1.31-1.35-.19.18.17,1.12-.29,1.27l3.16-1.32c-.79.25-.09,1,.65,1.23-.35-.2,2.79-.15,3.64-.31l-1.38-.18c3.65,0,3.5-1.79,7.11-2-.42.26-1,1.49.86,1.52.81-.62,3.55-3,6.71-3.66l.63.29,2.42-.54a56.59,56.59,0,0,1-7.92,3.94c1.38.17.4.36,2.44.2.74.26-1.08.54-1.68.6l4.76-.12c-.25-.66,3.59-.92,3.37-1.46l-5.11,1c-.25-.66,2.86-2.1,6.23-2.21.87.21-.56,1.24-.48,1.46a10.81,10.81,0,0,1,3.48-.51l-1.4.45c1.89.13,3-1.09,5.29-.6.78,0,2.38.71,2.49.3-1.32-.68-1.73-3-.93-3.66a51,51,0,0,1,5,.76c1.32.51-1.82,1.57-.69,2,0-.19.72-.46,1-.56.83.1-.3.59,1.47.38.25-.7,3.61-.21.8-.64,1.72-.32,1.85,0,3.88-.18-.68-.39,1.72-1.63,3.44-2-.09.18.32.38.51.47,3.55-.2,5.48,0,8.8-.27.32.14,1.93.21,1.27.56a6.18,6.18,0,0,1,1.91-.52c2,.43-2.27.28-.71.86.1-.41,2.6-.76,4-1.12-.5-.57-3.37.16-4.81.52-.07-.84,2.39-1.93,5.82-2.6,2.73-.43,1.23.45,1.7.29,5.17-.27,4.28-1.82,8.61-1.57,1.74.4.17,1.06.58,1.42-2.22.38-3.47-.06-5,.08l1.89.1a9.1,9.1,0,0,1-3,.4c1.46.36,8.73-.59,12.75-.52.69-.24,1.9-.54,1.3-.7l-1.25.19c-1.19-.33,2.32-.81.71-.87a19.73,19.73,0,0,1,5.91-1.06l.5.57a4,4,0,0,0-2.24,0c1-.36,3.72.51,4.73-.39l-1.7-.28a21.65,21.65,0,0,1,5.83-1.28c-1-.52-.48.11-2-.46,1.38.76-5.39.44-3.23,1.18-1.61-.68-2.69-.11-4.76-.63.08.2.74.32-1,.38a2,2,0,0,1-.37.21h-.12l.1,0c-.07,0-.08,0,0,0a2.57,2.57,0,0,1,.93.23c-.84.54-3.65.77-4.58,1.1-1.06,0,.42-.27-.17-.43l-1.39.48c-.18-.43-2.85-.51-.4-1l-2.23.16a13.91,13.91,0,0,0-4.24.18c-1.06,0-2.61.71-1.73.29l-3.47.56,0-.11c-3.45.22-7,1.32-11,.82a23.18,23.18,0,0,1-4.29.44l-.41-.36c-1.48.25-4.5-.06-5.11.39-1.68-.92-7.24.31-9.88.32l-.06.51a57.68,57.68,0,0,0-5.75.71l.17.44c-1.91.5-5,0-8,.26a2.78,2.78,0,0,1,1.53-.13c-3.72-.77-7.65,1.25-11,.73a4.86,4.86,0,0,1-2,.11l.2,0h-.34c-.37-.06-.75-.12-1.16-.17a6.42,6.42,0,0,0,1,.18c-.64,0-1.6.16-2.54.33l-.43-.46-.22,0c-.94-.12-.73.27-.21.6a8.16,8.16,0,0,0-1.23.36c-.8-.73-2.47.41-3.55-.36-.61.44-4.74.59-5.19,1.47,0-.11-.32-.14.19-.18a9.29,9.29,0,0,0-3.05.23l-.48-.58-2.26,1c-1.42-.29-2-.48-.65-1-3.32.9-2.71.42-5.52,1.28l.12-.4c-1,.07-2.62.68-3.26.39-2.32-.64-11.3.52-17.19.07,1.19,1.11-2.75-.4-2.94.52-.35-.26-1.18-.38-.24-.66-3,.41-4.51-.23-6.54.62-.35-.26.62-.43.31-.58a2.38,2.38,0,0,1-1.26.13c-.31-.15.43-.25.9-.39-3.05.19-3.32,1-3.51,1.86a4.44,4.44,0,0,0-3.43.36c-.55-.24-1.46-.47.43-.65-1.07,0-6.54-.13-6.62.52a4.49,4.49,0,0,0-1.77.09c-2.4.05-2.61,0-5,.16l.66.08c-.9.81-2,.25-3.84.41l.05-.08c-4.37-.39-1.87.34-6.19-.13l.25.47c-.36,1.05-3.83-.49-6.3,0l.91.25c-1.35.4-3.85-1.28-5.22-1.37-.3-.08.47-.16.88-.24-3.6-.5-.44.64-3.1.87-.5-.32.61-.88-1.19-.89-.9-.25-5.17,1.26-7.64.69.55.24,1.09.49-.14.72-1.9.15-5.16-.86-6.85,0-.24-.07-.34-.13-.35-.2-1.45.25-4.71.47-5.57.94-1.38-1.62-9,1-9-.5l-4.46.16.11-.16a10.74,10.74,0,0,0-4.85.72c-.66-.09-.18-.24-.13-.32a19.85,19.85,0,0,0-8.07.66l-.37-.49c-.94.31-6-.67-10.12-.06,0-.06.12-.15.45-.23-4.6.63-11-1.26-12.7.56l-3,.48c3.93.1-.58.79,1,1.07-1.55.13-4-.52-2.1-.62l.3.09c.69-.94-4.89-.32-4.78-1-7.73.06-15.27-.4-22.51-.46l.83.73-2.53,0c-.66-.17-.89-.57.91-.54a4.53,4.53,0,0,0-3.08.5c-3.53-.3,1.38-.85.3-.87l-1.47.05.33.09a8.16,8.16,0,0,1-3.47.57c-1.37-.15-.7-.45-1.24-.48,0-.05-.18-.08-.83,0l-3.19-.07,1.27.58c-1.41.28-3,0-1.53.62-2.15-1-11.88-.37-13.21-.68a27.93,27.93,0,0,1-6.35.39c.6.12,1,.76-1.12.7.75-1.35-3.82-.56-5.52-1.5,1.51.62-5.93.22-3.56,1.1-1.74-.09-.11-.5-1.44-.8-4.14.58-9.15-.18-14.27.14-.07.18.79.42-.3.72l-2.73-.79c-1,.12-.9,1-2.77.49.27.14.66.35,0,.43-10.09-.5-20.46,1.66-30.77,1,1.41.21.49.33-.56.44.69,0,0,.43.18.66L7,137.14c-.71.74-4.56.54-4.93,1.21l1.33-.26c-1.71.94,2.68,1.38,2.51,2.36,1.91-1.07,5.38.75,8.54-.76.74.14-.59.36-.19.55a6.64,6.64,0,0,1,3.67-.6l-.2.12a58.76,58.76,0,0,1,6.44-.31h6.94l-.46-.45a9.26,9.26,0,0,1,2.14.22c1.41-.79-3.55.15-2.27-.71.87.44,3.09.32,5.25.24s4.26-.12,4.85.4c1.94-.08-.59-.52,1.35-.6l.53.28.48-.4c1.28,0,1.93.37,2,.62a10,10,0,0,0-1.21.13c1.66.3,4.66-.27,5.23-.17l-1.87-.12c5.3-.45,11.8-.18,16.93-.85l-.39-.22c3.92-.45,3.15.21,7.45,0l-.16.05a12.37,12.37,0,0,1,3.19-.33c-1.09.27,2.05.5.62.79,4.26-.47,2.1-.36,4.91-1.2l.65.37a7.26,7.26,0,0,1,3.19-.61c-1.77.32,1.38.56-.6,1,4.52.81,6.71-.82,8.79.37,2.08-1-3.91-.57-2.75-.79-1-.34,1.71-.77,3.13-.66s2.45,1.32,6.09,1.31c-.36,0-.39.07-.75.07,1.36.26,2.67-.35,4.33.08.94-.62,2.17,0,2.44-.75l-3.33.18c1.89-.2,3.66-1.12,6.78-.67a8,8,0,0,1-1.81.48c.91.23,1.75-.15,2.7.09-.27.79-4.05.17-6.08.77,1,.34,3.83-.57,2.81.29,1.46-1.09,3.58.14,6-.69l-.16.47a9.36,9.36,0,0,1,1.91-.29l-1.3.62c2-.52,3.84.45,5.76.16-4,0-.9-.57-2.59-.91,4.94-.65,2.84,1.23,8.37,1-.75.07-2.81-.28-1.64-.5a15,15,0,0,1,3.09.52c3.66-.11-.56-.49,1-.78,1.25.57,1.8-.24,3.4-.43v.48c4.18.3,1.1-1,4.86-.65l-1.58.67,2-.18-.4.55a14.47,14.47,0,0,1,4.88-.19c-.49-.33.27-.88,2.11-.91,1.26.27-.7.47,1.92.37a2.5,2.5,0,0,1-2.38.26c-.12.16-.58.31-.7.47a19.37,19.37,0,0,0,4.36,0,5.36,5.36,0,0,1-1-.1l3.79-.71c.6.18.13.33-.34.47.77-.06,1.3-.29,2.43-.34-.29.4-.21.8-1.81,1l3.62-.47c.24.17,1.86.45,1.4.6,2,.21,4.91-.81,7.58-.56a2.86,2.86,0,0,1,1-.22c2.5,0,4.73.49,7.68-.1l1.69.67c2.32-.2-2.29-.85,1.57-1.18,2.73-.27,1,.58,2,.76a13.06,13.06,0,0,1,6.23-.62A20.49,20.49,0,0,1,177.76,138Zm28.61-1.05c-.55.12-1.65.47-2.06.19C204.93,136.57,205.43,136.82,206.38,136.95Zm43.44-2.77a3.23,3.23,0,0,1-1.77,0A6.75,6.75,0,0,1,249.82,134.18Zm120.67-11-.06,0C369.18,123.07,369.63,123.11,370.49,123.13Zm2.58,0c.25-.09.23-.15.11-.21a3.36,3.36,0,0,1-1.4.21C372,123.24,372.31,123.3,373.06,123.13ZM97.78,134.21l.5.13C97.15,134.48,97.47,134.35,97.78,134.21Z" transform="translate(0 -1.05)"/><path class="cls-1" d="M244.92,135.06a.44.44,0,0,1-.25-.25C244.46,134.9,244.46,135,244.92,135.06Z" transform="translate(0 -1.05)"/><path class="cls-1" d="M160,138.57h-.09a.22.22,0,0,0-.09.09Z" transform="translate(0 -1.05)"/><path class="cls-1" d="M333.72,130.29a3.49,3.49,0,0,1-1-.17C332.67,130.24,332.91,130.32,333.72,130.29Z" transform="translate(0 -1.05)"/><path class="cls-1" d="M386.54,121.13l-1.63.27a5,5,0,0,1,1.49,0C386.35,121.32,386,121.18,386.54,121.13Z" transform="translate(0 -1.05)"/><path class="cls-1" d="M401,122.82c.23-.08.51-.05.74-.14l-.09-.22C400.65,122.57,400,122.82,401,122.82Z" transform="translate(0 -1.05)"/><path class="cls-1" d="M388.19,122.59c.17.39,1.18.17,2.32,0l-.2,0C390.6,122,389.39,122.3,388.19,122.59Z" transform="translate(0 -1.05)"/><path class="cls-1" d="M390.78,122.54a9.84,9.84,0,0,1,1.06-.1C392,122.2,391.41,122.43,390.78,122.54Z" transform="translate(0 -1.05)"/><path class="cls-1" d="M376.28,122.59c.55.06.3-.55.62-.41C377.46,121.61,373.33,123.12,376.28,122.59Z" transform="translate(0 -1.05)"/><polygon class="cls-1" points="389.24 122.8 388.79 122.33 388.18 122.79 389.24 122.8"/><path class="cls-1" d="M380.15,124.28l1.85,0c0-.08.19-.15.48-.21A8.64,8.64,0,0,0,380.15,124.28Z" transform="translate(0 -1.05)"/><path class="cls-1" d="M382.47,124a6.82,6.82,0,0,0,1.47-.21C383.62,123.86,382.94,123.94,382.47,124Z" transform="translate(0 -1.05)"/><polygon class="cls-1" points="386.75 123.17 386.2 123.11 384.9 123.19 386.75 123.17"/><path class="cls-1" d="M360.42,125.82l-2,.31c-.19.19.36.25,1.1.12C360,126.08,360.74,126,360.42,125.82Z" transform="translate(0 -1.05)"/><path class="cls-1" d="M366.59,126.69a2.06,2.06,0,0,1-.91-.31V127Z" transform="translate(0 -1.05)"/><path class="cls-1" d="M360.76,127.31c-.19.19-2.87.73-.33.48C360.61,127.61,362.61,127.3,360.76,127.31Z" transform="translate(0 -1.05)"/><polygon class="cls-1" points="330.5 127.77 331.01 127.73 330.87 126.72 330.5 127.77"/><path class="cls-1" d="M304,133c2.39.1.53-.66,2.69-.49.54-.27-1.77-.14-1.21-.38C304.08,132.46,303.32,132.36,304,133Z" transform="translate(0 -1.05)"/><path class="cls-1" d="M305.5,132.12c.23-.05.47-.12.72-.2A4.25,4.25,0,0,0,305.5,132.12Z" transform="translate(0 -1.05)"/><polygon class="cls-1" points="4.14 135.88 2.58 135.83 3.61 136.07 4.14 135.88"/><path class="cls-1" d="M1.28,138l-.43-.61-.85.68A3.11,3.11,0,0,1,1.28,138Z" transform="translate(0 -1.05)"/><path class="cls-1" d="M210.67,138.12l.11-.16a2.6,2.6,0,0,0-1.32-.17Z" transform="translate(0 -1.05)"/><polygon class="cls-1" points="189.88 137.17 190.24 137.18 189.56 136.61 189.88 137.17"/><path class="cls-1" d="M172.45,139.35c.71,0,1.55-.13,2.26-.12C173.17,139.37,172.25,138.63,172.45,139.35Z" transform="translate(0 -1.05)"/><circle class="cls-2" cx="279.48" cy="227.03" r="25.8"/><text class="cls-3" transform="translate(243.08 201.21) rotate(-15.12)">中央大學</text><g id="圖層_2-2" data-name="圖層 2"><g id="圖層_1-2-2" data-name="圖層 1-2"><path class="cls-4" d="M144,59.65s23.71-20.31,33.2,9.63c14.19,8.15,19.3,33-6.26,36.78-11-.61-15.27-7.07-15.27-7.07l-7.05-1.34-5.57-3s-13,.92-13.52-1.68C118.64,93.07,110.4,55.26,144,59.65Z" transform="translate(0 -1.05)"/><polyline class="cls-4" points="128.69 91.6 128.86 101.72 161.25 112.64 167.36 105.29"/><path class="cls-4" d="M128.85,102.76s-4.06,15.17-.71,16,26.25,8.85,26.25,8.85l6.88-13.88" transform="translate(0 -1.05)"/><path class="cls-5" d="M136.43,116.57a1.79,1.79,0,0,0,.29,1.53,2.13,2.13,0,0,0,.52.52,2.74,2.74,0,0,0,.7.24,2.3,2.3,0,0,0,.62.21,1.79,1.79,0,0,0,.61-.08,1.31,1.31,0,0,0,.49-.26,1.12,1.12,0,0,0,.31-.5,1,1,0,0,0,0-.59,1.77,1.77,0,0,0-.25-.54l-.45-.55-.56-.56-.53-.49-.49-.51-.41-.57a2.72,2.72,0,0,1-.29-.59,2.06,2.06,0,0,1-.1-.64,2.15,2.15,0,0,1,.23-.67,2,2,0,0,1,.38-.7,2.21,2.21,0,0,1,.59-.46,2.74,2.74,0,0,1,.68-.46,3.82,3.82,0,0,1,.79-.11l.82,0,.75.25a3.9,3.9,0,0,1,.88.3,2.73,2.73,0,0,1,.63.53,1.66,1.66,0,0,1,.33.63,1.17,1.17,0,0,1,0,.68,1.06,1.06,0,0,1-.1.28.9.9,0,0,1-.25.23.93.93,0,0,1-.36.14,1.07,1.07,0,0,1-.44-.15l-.52-.17h0a2,2,0,0,0,.11-.34,1.44,1.44,0,0,0,.1-.28.81.81,0,0,0,0-.48,1.14,1.14,0,0,0-.23-.42,1.48,1.48,0,0,0-.39-.3l-.47-.16a2.44,2.44,0,0,0-.73-.24,1.89,1.89,0,0,0-.64.1,1.37,1.37,0,0,0-.48.3,1.09,1.09,0,0,0-.17.49,1.06,1.06,0,0,0,0,.62,2.07,2.07,0,0,0,.28.61,4.42,4.42,0,0,0,.52.61l.63.61.73.74a4.44,4.44,0,0,1,.6.78,2.5,2.5,0,0,1,.33.83,1.79,1.79,0,0,1-.09.95,2.23,2.23,0,0,1-.62,1,2.74,2.74,0,0,1-1,.54,3.46,3.46,0,0,1-1.18.15,4.56,4.56,0,0,1-1.24-.25l-.65-.22-.6-.35-.57-.36a2.45,2.45,0,0,1-.39-.48,1.47,1.47,0,0,1-.21-.5,1,1,0,0,1,.16-.46.76.76,0,0,1,.13-.39.85.85,0,0,1,.35-.17l.42,0,.39.13Z" transform="translate(0 -1.05)"/><path class="cls-5" d="M147.87,115.62a4,4,0,0,1,2.48.26,1.39,1.39,0,0,1,.36,1.93l-.07.09a1.32,1.32,0,0,1-1.73,0A3.75,3.75,0,0,1,147.87,115.62Z" transform="translate(0 -1.05)"/><path class="cls-5" d="M147.92,115.49a3.94,3.94,0,0,1-.37,2.46,1.4,1.4,0,0,1-2,.29l-.11-.09a1.3,1.3,0,0,1,.09-1.72A3.78,3.78,0,0,1,147.92,115.49Z" transform="translate(0 -1.05)"/><path class="cls-5" d="M147.93,115.46a4,4,0,0,1-2.5-.12,1.39,1.39,0,0,1-.46-1.91l.08-.12a1.32,1.32,0,0,1,1.73-.08A3.75,3.75,0,0,1,147.93,115.46Z" transform="translate(0 -1.05)"/><path class="cls-5" d="M147.84,115.72a3.94,3.94,0,0,1,.4-2.45,1.4,1.4,0,0,1,2-.25l.09.08a1.3,1.3,0,0,1-.09,1.72A3.78,3.78,0,0,1,147.84,115.72Z" transform="translate(0 -1.05)"/><path class="cls-5" d="M148,116.84v-.55h0l.15,4.16-.29-.1.08-2.19Z" transform="translate(0 -1.05)"/><path class="cls-5" d="M166.61,65.21h0a2.91,2.91,0,0,1-3.9,1.28l-.15-.08h0c-1.64-.7-1.64-3.69-1.9-3.77h0s2.59-2.26,4.19-1.46h0A3.18,3.18,0,0,1,166.61,65.21Z" transform="translate(0 -1.05)"/><path class="cls-5" d="M153.3,68.86h0a2.88,2.88,0,0,1-1.62-3.75l0-.09h0c.57-1.68,3.59-2.07,3.66-2.28h0s2.58,2.28,2.06,4h0a3.2,3.2,0,0,1-3.95,2.2Z" transform="translate(0 -1.05)"/><path class="cls-5" d="M145.28,71.83h0a2.9,2.9,0,0,1-3.09-2.69q0-.14,0-.28h0c-.24-1.75,2.29-3.34,2.27-3.55h0s3.27,1.1,3.53,2.77h0a3.19,3.19,0,0,1-2.56,3.72Z" transform="translate(0 -1.05)"/><path class="cls-5" d="M137.24,74.5h0a2.91,2.91,0,0,1-3.9,1.28l-.15-.08h0c-1.64-.7-1.64-3.69-1.9-3.77h0s2.59-2.26,4.19-1.46h0A3.18,3.18,0,0,1,137.24,74.5Z" transform="translate(0 -1.05)"/><path class="cls-5" d="M147.37,81h0a2.91,2.91,0,0,1-3.9,1.28l-.15-.08h0c-1.64-.7-1.64-3.69-1.9-3.77h0s2.59-2.26,4.19-1.46h0A3.18,3.18,0,0,1,147.37,81Z" transform="translate(0 -1.05)"/><path class="cls-5" d="M157.66,78.3h0a2.91,2.91,0,0,1-3.9,1.28l-.15-.08h0c-1.64-.7-1.64-3.69-1.9-3.77h0s2.59-2.26,4.19-1.46h0A3.18,3.18,0,0,1,157.66,78.3Z" transform="translate(0 -1.05)"/><path class="cls-5" d="M157.79,91.2h0a2.91,2.91,0,0,1-3.9,1.28l-.15-.08h0c-1.64-.7-1.64-3.69-1.9-3.77h0s2.59-2.26,4.19-1.46h0A3.18,3.18,0,0,1,157.79,91.2Z" transform="translate(0 -1.05)"/><path class="cls-5" d="M137.76,85.29h0a2.91,2.91,0,0,1-3.9,1.28l-.15-.08h0c-1.64-.7-1.64-3.69-1.9-3.77h0s2.59-2.26,4.19-1.46h0A3.18,3.18,0,0,1,137.76,85.29Z" transform="translate(0 -1.05)"/><path class="cls-5" d="M143.41,92.89h0c-1.68-.42-2.2-2-1.86-3.79h0c.44-1.72,3.37-2.26,3.41-2.47h0s2.67,2.17,2.27,3.87h0A3.2,3.2,0,0,1,143.41,92.89Z" transform="translate(0 -1.05)"/></g></g><text class="cls-3" transform="translate(350.41 109.51) rotate(11.61)">中央路</text></g></g></svg>