<svg xmlns="http://www.w3.org/2000/svg" viewBox="0 0 47.47 41.67"><defs><style>.cls-1{fill:none;stroke:#fff;stroke-miterlimit:10;}.cls-2,.cls-3{fill:#fff;}.cls-3{font-size:12px;font-family:Gabriola, Gabriola;}.cls-4{letter-spacing:-0.01em;}</style></defs><title>資產 6</title><g id="圖層_2" data-name="圖層 2"><g id="圖層_1-2" data-name="圖層 1"><path class="cls-1" d="M17.06,18.59s5.82-9.84,12.63-.54c5.87,1.17,10.56,9.2,2.16,13.52-3.89,1.08-6.12-.67-6.12-.67l-2.6.36-2.28-.39s-4.39,1.84-4.88,1C12.21,33.18,4.91,21,17.06,18.59Z"/><polyline class="cls-1" points="15.65 31.85 16.9 35.35 29.4 35.35 30.65 32.08"/><path class="cls-1" d="M16.9,35.35s.38,5.75,1.63,5.63,10.13,0,10.13,0l.75-5.63"/><line class="cls-1" x1="4.18" y1="41.17" x2="32.85" y2="41.17"/><path class="cls-2" d="M21.15,39.26a.66.66,0,0,0,.28.5.78.78,0,0,0,.24.12,1,1,0,0,0,.27,0,.84.84,0,0,0,.24,0,.65.65,0,0,0,.2-.1.48.48,0,0,0,.14-.15.41.41,0,0,0,.05-.21.38.38,0,0,0-.06-.21.65.65,0,0,0-.15-.16l-.22-.14-.26-.13-.24-.11-.23-.12-.21-.15a1,1,0,0,1-.17-.17.76.76,0,0,1-.11-.21.79.79,0,0,1,0-.26.74.74,0,0,1,.05-.29.81.81,0,0,1,.15-.23A1,1,0,0,1,21.3,37a1.39,1.39,0,0,1,.26-.13l.29-.08.29,0a1.42,1.42,0,0,1,.34,0,1,1,0,0,1,.28.11.61.61,0,0,1,.19.18.43.43,0,0,1,.07.24.39.39,0,0,1,0,.11.33.33,0,0,1-.06.11.34.34,0,0,1-.11.09.39.39,0,0,1-.17,0l-.2,0v0a.73.73,0,0,0,0-.13.53.53,0,0,0,0-.11.3.3,0,0,0-.05-.17.42.42,0,0,0-.13-.12.54.54,0,0,0-.17-.06l-.18,0a.89.89,0,0,0-.28,0,.69.69,0,0,0-.21.11.5.5,0,0,0-.13.16.4.4,0,0,0,0,.19.39.39,0,0,0,.06.22.76.76,0,0,0,.17.18,1.62,1.62,0,0,0,.25.15l.29.14.34.17a1.63,1.63,0,0,1,.3.2.92.92,0,0,1,.21.25.66.66,0,0,1,.08.34.82.82,0,0,1-.1.41,1,1,0,0,1-.27.3,1.26,1.26,0,0,1-.39.19,1.66,1.66,0,0,1-.46.06l-.25,0-.25-.05L21.07,40a.9.9,0,0,1-.19-.12.54.54,0,0,1-.13-.15.38.38,0,0,1,0-.18.28.28,0,0,1,0-.15.31.31,0,0,1,.1-.1l.14-.06.15,0Z"/><path class="cls-2" d="M25,37.59a1.45,1.45,0,0,1,.89-.2.51.51,0,0,1,.34.67.48.48,0,0,1-.6.2A1.38,1.38,0,0,1,25,37.59Z"/><path class="cls-2" d="M25,37.54a1.45,1.45,0,0,1,.16.9.51.51,0,0,1-.69.31.48.48,0,0,1-.17-.61A1.38,1.38,0,0,1,25,37.54Z"/><path class="cls-2" d="M25,37.53a1.45,1.45,0,0,1-.88.25.51.51,0,0,1-.37-.66.48.48,0,0,1,.59-.23A1.38,1.38,0,0,1,25,37.53Z"/><path class="cls-2" d="M25,37.63a1.45,1.45,0,0,1-.15-.9.51.51,0,0,1,.69-.3.48.48,0,0,1,.17.61A1.38,1.38,0,0,1,25,37.63Z"/><path class="cls-2" d="M25.19,38l-.07-.19,0,0,.54,1.43-.11,0-.23-.77Z"/><path class="cls-2" d="M25.56,17.87h0a1.06,1.06,0,0,1-1.26.89h0c-.65-.05-1-1.09-1.1-1.09h0s.63-1.09,1.28-1h0A1.17,1.17,0,0,1,25.56,17.87Z"/><path class="cls-2" d="M21.38,20.7h0a1.06,1.06,0,0,1-1-1.15h0c0-.65,1-1.14,1-1.22h0s1.16.49,1.18,1.14h0A1.17,1.17,0,0,1,21.38,20.7Z"/><path class="cls-2" d="M18.95,22.67h0A1.06,1.06,0,0,1,17.53,22h0c-.29-.58.4-1.43.37-1.5h0s1.26,0,1.55.55h0A1.17,1.17,0,0,1,18.95,22.67Z"/><path class="cls-2" d="M16.48,24.54h0a1.06,1.06,0,0,1-1.26.89h0c-.65-.05-1-1.09-1.1-1.09h0s.63-1.09,1.28-1h0A1.17,1.17,0,0,1,16.48,24.54Z"/><path class="cls-2" d="M20.75,25.6h0a1.06,1.06,0,0,1-1.26.89h0c-.65-.05-1-1.09-1.1-1.09h0s.63-1.09,1.28-1h0A1.17,1.17,0,0,1,20.75,25.6Z"/><path class="cls-2" d="M24,23.47h0a1.06,1.06,0,0,1-1.26.89h0c-.65-.05-1-1.09-1.1-1.09h0s.63-1.09,1.28-1h0A1.17,1.17,0,0,1,24,23.47Z"/><path class="cls-2" d="M25.56,27.94h0a1.06,1.06,0,0,1-1.26.89h0c-.65-.05-1-1.09-1.1-1.09h0s.63-1.09,1.28-1h0A1.17,1.17,0,0,1,25.56,27.94Z"/><path class="cls-2" d="M17.93,28.23h0a1.06,1.06,0,0,1-1.26.89h0c-.65-.05-1-1.09-1.1-1.09h0s.63-1.09,1.28-1h0A1.17,1.17,0,0,1,17.93,28.23Z"/><path class="cls-2" d="M20.78,30.21h0c-.63.05-1-.45-1.09-1.1h0c-.05-.65.9-1.18.89-1.26h0s1.18.44,1.24,1.08h0A1.17,1.17,0,0,1,20.78,30.21Z"/><text class="cls-3" transform="translate(0 9.35)">happyS<tspan class="cls-4" x="27.38" y="0">w</tspan><tspan x="33.19" y="0">eets</tspan></text></g></g></svg>